<svg width="53" height="13" viewBox="0 0 53 13" fill="none" xmlns="http://www.w3.org/2000/svg">
<path d="M17.026 3.19C17.2093 3.19 17.3597 3.22667 17.477 3.3C17.6017 3.366 17.7043 3.45767 17.785 3.575C17.8657 3.685 17.9317 3.81333 17.983 3.96C18.0343 4.10667 18.0783 4.257 18.115 4.411C18.4083 5.599 18.6503 6.578 18.841 7.348C19.0317 8.118 19.182 8.74133 19.292 9.218C19.402 9.68733 19.479 10.0357 19.523 10.263C19.567 10.4903 19.589 10.648 19.589 10.736C19.589 10.8387 19.5633 10.9083 19.512 10.945C19.468 10.9817 19.3947 11 19.292 11H18.731C18.4157 11 18.1627 10.9633 17.972 10.89C17.7887 10.8093 17.6457 10.6957 17.543 10.549C17.4477 10.4023 17.378 10.2263 17.334 10.021C17.29 9.80833 17.2533 9.57 17.224 9.306H15.31L14.947 10.824C14.9103 10.9413 14.826 11 14.694 11H14.111C13.9937 11 13.8727 10.989 13.748 10.967C13.6233 10.9377 13.5097 10.8937 13.407 10.835C13.3117 10.7763 13.231 10.703 13.165 10.615C13.099 10.5197 13.066 10.406 13.066 10.274C13.066 10.1127 13.1173 9.84867 13.22 9.482C13.3227 9.11533 13.451 8.701 13.605 8.239C13.7663 7.76967 13.9423 7.282 14.133 6.776C14.331 6.26267 14.5217 5.77867 14.705 5.324C14.8883 4.86933 15.0533 4.46967 15.2 4.125C15.354 3.78033 15.4713 3.53833 15.552 3.399C15.6107 3.29633 15.662 3.23767 15.706 3.223C15.7573 3.201 15.849 3.19 15.981 3.19H17.026ZM15.706 7.711H16.971L16.509 4.807L15.706 7.711ZM22.2101 11.11C21.9241 11.11 21.6491 11.0587 21.3851 10.956C21.1284 10.8533 20.9011 10.692 20.7031 10.472C20.5124 10.252 20.3584 9.97333 20.2411 9.636C20.1311 9.29867 20.0761 8.89167 20.0761 8.415C20.0761 8.20233 20.0908 7.96767 20.1201 7.711C20.1494 7.447 20.2008 7.183 20.2741 6.919C20.3474 6.655 20.4501 6.39833 20.5821 6.149C20.7141 5.89967 20.8791 5.67967 21.0771 5.489C21.2824 5.291 21.5244 5.13333 21.8031 5.016C22.0891 4.89867 22.4228 4.84 22.8041 4.84C23.1708 4.84 23.4641 4.906 23.6841 5.038C23.9114 5.16267 24.0544 5.38267 24.1131 5.698C24.1278 5.412 24.1424 5.16267 24.1571 4.95C24.1718 4.73733 24.1828 4.53933 24.1901 4.356C24.2048 4.17267 24.2194 3.98933 24.2341 3.806C24.2488 3.62267 24.2634 3.41367 24.2781 3.179C24.2854 3.01767 24.3038 2.92233 24.3331 2.893C24.3478 2.87833 24.3661 2.871 24.3881 2.871C24.4101 2.86367 24.4504 2.86 24.5091 2.86H24.9381C25.1581 2.86 25.3414 2.88567 25.4881 2.937C25.6348 2.98833 25.7521 3.058 25.8401 3.146C25.9281 3.234 25.9904 3.33667 26.0271 3.454C26.0638 3.564 26.0821 3.68133 26.0821 3.806C26.0821 3.806 26.0748 3.89767 26.0601 4.081C26.0454 4.26433 26.0271 4.51 26.0051 4.818C25.9831 5.11867 25.9574 5.46333 25.9281 5.852C25.8988 6.24067 25.8694 6.644 25.8401 7.062C25.8108 7.47267 25.7814 7.88333 25.7521 8.294C25.7228 8.69733 25.6934 9.07133 25.6641 9.416C25.6348 9.75333 25.6091 10.0467 25.5871 10.296C25.5724 10.538 25.5614 10.6993 25.5541 10.78C25.5394 10.868 25.5211 10.9267 25.4991 10.956C25.4771 10.9853 25.4148 11 25.3121 11H24.9161C24.7621 11 24.6154 10.989 24.4761 10.967C24.3441 10.9377 24.2268 10.8937 24.1241 10.835C24.0288 10.769 23.9518 10.6847 23.8931 10.582C23.8418 10.472 23.8161 10.3327 23.8161 10.164C23.6841 10.4427 23.4824 10.67 23.2111 10.846C22.9471 11.022 22.6134 11.11 22.2101 11.11ZM23.1671 6.303C22.7931 6.303 22.5144 6.468 22.3311 6.798C22.1551 7.12067 22.0671 7.557 22.0671 8.107C22.0671 8.29767 22.0781 8.48467 22.1001 8.668C22.1294 8.85133 22.1771 9.01633 22.2431 9.163C22.3091 9.30967 22.3971 9.427 22.5071 9.515C22.6244 9.603 22.7711 9.647 22.9471 9.647C23.2624 9.647 23.5264 9.493 23.7391 9.185C23.9518 8.877 24.0581 8.393 24.0581 7.733C24.0581 7.54967 24.0471 7.37367 24.0251 7.205C24.0031 7.029 23.9591 6.875 23.8931 6.743C23.8271 6.611 23.7354 6.50467 23.6181 6.424C23.5008 6.34333 23.3504 6.303 23.1671 6.303ZM28.9025 11.11C28.6165 11.11 28.3415 11.0587 28.0775 10.956C27.8208 10.8533 27.5935 10.692 27.3955 10.472C27.2048 10.252 27.0508 9.97333 26.9335 9.636C26.8235 9.29867 26.7685 8.89167 26.7685 8.415C26.7685 8.20233 26.7831 7.96767 26.8125 7.711C26.8418 7.447 26.8931 7.183 26.9665 6.919C27.0398 6.655 27.1425 6.39833 27.2745 6.149C27.4065 5.89967 27.5715 5.67967 27.7695 5.489C27.9748 5.291 28.2168 5.13333 28.4955 5.016C28.7815 4.89867 29.1151 4.84 29.4965 4.84C29.8631 4.84 30.1565 4.906 30.3765 5.038C30.6038 5.16267 30.7468 5.38267 30.8055 5.698C30.8201 5.412 30.8348 5.16267 30.8495 4.95C30.8641 4.73733 30.8751 4.53933 30.8825 4.356C30.8971 4.17267 30.9118 3.98933 30.9265 3.806C30.9411 3.62267 30.9558 3.41367 30.9705 3.179C30.9778 3.01767 30.9961 2.92233 31.0255 2.893C31.0401 2.87833 31.0585 2.871 31.0805 2.871C31.1025 2.86367 31.1428 2.86 31.2015 2.86H31.6305C31.8505 2.86 32.0338 2.88567 32.1805 2.937C32.3271 2.98833 32.4445 3.058 32.5325 3.146C32.6205 3.234 32.6828 3.33667 32.7195 3.454C32.7561 3.564 32.7745 3.68133 32.7745 3.806C32.7745 3.806 32.7671 3.89767 32.7525 4.081C32.7378 4.26433 32.7195 4.51 32.6975 4.818C32.6755 5.11867 32.6498 5.46333 32.6205 5.852C32.5911 6.24067 32.5618 6.644 32.5325 7.062C32.5031 7.47267 32.4738 7.88333 32.4445 8.294C32.4151 8.69733 32.3858 9.07133 32.3565 9.416C32.3271 9.75333 32.3015 10.0467 32.2795 10.296C32.2648 10.538 32.2538 10.6993 32.2465 10.78C32.2318 10.868 32.2135 10.9267 32.1915 10.956C32.1695 10.9853 32.1071 11 32.0045 11H31.6085C31.4545 11 31.3078 10.989 31.1685 10.967C31.0365 10.9377 30.9191 10.8937 30.8165 10.835C30.7211 10.769 30.6441 10.6847 30.5855 10.582C30.5341 10.472 30.5085 10.3327 30.5085 10.164C30.3765 10.4427 30.1748 10.67 29.9035 10.846C29.6395 11.022 29.3058 11.11 28.9025 11.11ZM29.8595 6.303C29.4855 6.303 29.2068 6.468 29.0235 6.798C28.8475 7.12067 28.7595 7.557 28.7595 8.107C28.7595 8.29767 28.7705 8.48467 28.7925 8.668C28.8218 8.85133 28.8695 9.01633 28.9355 9.163C29.0015 9.30967 29.0895 9.427 29.1995 9.515C29.3168 9.603 29.4635 9.647 29.6395 9.647C29.9548 9.647 30.2188 9.493 30.4315 9.185C30.6441 8.877 30.7505 8.393 30.7505 7.733C30.7505 7.54967 30.7395 7.37367 30.7175 7.205C30.6955 7.029 30.6515 6.875 30.5855 6.743C30.5195 6.611 30.4278 6.50467 30.3105 6.424C30.1931 6.34333 30.0428 6.303 29.8595 6.303ZM37.1991 11C36.7811 11 36.4841 10.9193 36.3081 10.758C36.1395 10.5893 36.0551 10.3437 36.0551 10.021C36.0551 9.92567 36.0588 9.77533 36.0661 9.57C36.0808 9.35733 36.0991 9.108 36.1211 8.822C36.1431 8.536 36.1651 8.22433 36.1871 7.887C36.2165 7.54967 36.2458 7.205 36.2751 6.853C36.3118 6.42033 36.3411 6.05 36.3631 5.742C36.3925 5.42667 36.4145 5.159 36.4291 4.939C36.4438 4.71167 36.4548 4.52467 36.4621 4.378C36.4768 4.224 36.4841 4.092 36.4841 3.982C36.4915 3.86467 36.4951 3.75833 36.4951 3.663C36.5025 3.56767 36.5061 3.465 36.5061 3.355C36.5061 3.29633 36.5245 3.256 36.5611 3.234C36.5978 3.20467 36.6345 3.19 36.6711 3.19C36.8618 3.19 37.0708 3.18633 37.2981 3.179C37.5255 3.16433 37.7528 3.14967 37.9801 3.135C38.2075 3.12033 38.4275 3.10933 38.6401 3.102C38.8528 3.08733 39.0398 3.08 39.2011 3.08C39.6705 3.08 40.0738 3.13867 40.4111 3.256C40.7485 3.366 41.0198 3.531 41.2251 3.751C41.4378 3.96367 41.5918 4.224 41.6871 4.532C41.7898 4.84 41.8411 5.192 41.8411 5.588C41.8411 6.02067 41.7825 6.43867 41.6651 6.842C41.5551 7.238 41.3791 7.59 41.1371 7.898C40.8951 8.206 40.5835 8.45167 40.2021 8.635C39.8208 8.81833 39.3661 8.91 38.8381 8.91C38.5228 8.91 38.2551 8.877 38.0351 8.811L37.8811 10.835C37.8738 10.8937 37.8591 10.9377 37.8371 10.967C37.8151 10.989 37.7711 11 37.7051 11H37.1991ZM38.9811 4.73C38.8858 4.73 38.7795 4.73733 38.6621 4.752C38.5448 4.75933 38.4201 4.77033 38.2881 4.785C38.2735 5.093 38.2551 5.467 38.2331 5.907C38.2111 6.347 38.1818 6.809 38.1451 7.293C38.2551 7.32233 38.3615 7.34433 38.4641 7.359C38.5741 7.36633 38.6731 7.37 38.7611 7.37C39.0178 7.37 39.2231 7.31133 39.3771 7.194C39.5385 7.06933 39.6631 6.919 39.7511 6.743C39.8391 6.567 39.8978 6.38367 39.9271 6.193C39.9565 6.00233 39.9711 5.83733 39.9711 5.698C39.9711 5.38267 39.8978 5.14433 39.7511 4.983C39.6118 4.81433 39.3551 4.73 38.9811 4.73ZM44.9529 11.11C44.6303 11.11 44.3076 11.0697 43.9849 10.989C43.6696 10.9083 43.3836 10.769 43.1269 10.571C42.8776 10.373 42.6723 10.109 42.5109 9.779C42.3496 9.449 42.2689 9.03467 42.2689 8.536C42.2689 8.35267 42.2836 8.13267 42.3129 7.876C42.3423 7.61933 42.3973 7.35533 42.4779 7.084C42.5659 6.81267 42.6833 6.545 42.8299 6.281C42.9839 6.00967 43.1819 5.76767 43.4239 5.555C43.6659 5.34233 43.9593 5.17 44.3039 5.038C44.6486 4.906 45.0593 4.84 45.5359 4.84C45.9173 4.84 46.2399 4.884 46.5039 4.972C46.7679 5.06 46.9806 5.181 47.1419 5.335C47.3033 5.48167 47.4206 5.654 47.4939 5.852C47.5673 6.05 47.6039 6.26267 47.6039 6.49C47.6039 6.82733 47.5343 7.11333 47.3949 7.348C47.2629 7.58267 47.0869 7.78067 46.8669 7.942C46.6543 8.096 46.4159 8.217 46.1519 8.305C45.8879 8.393 45.6276 8.46267 45.3709 8.514C45.1143 8.558 44.8759 8.58733 44.6559 8.602C44.4433 8.60933 44.2783 8.613 44.1609 8.613C44.1609 8.75233 44.1793 8.89167 44.2159 9.031C44.2599 9.163 44.3223 9.28033 44.4029 9.383C44.4836 9.48567 44.5899 9.57 44.7219 9.636C44.8539 9.702 45.0153 9.735 45.2059 9.735C45.3966 9.735 45.5433 9.70567 45.6459 9.647C45.7559 9.581 45.8439 9.51133 45.9099 9.438C45.9759 9.35733 46.0309 9.28767 46.0749 9.229C46.1263 9.163 46.1923 9.13 46.2729 9.13C46.3096 9.13 46.3719 9.141 46.4599 9.163C46.5553 9.17767 46.6506 9.21433 46.7459 9.273C46.8413 9.33167 46.9256 9.41233 46.9989 9.515C47.0723 9.61767 47.1089 9.74967 47.1089 9.911C47.1089 10.1237 47.0429 10.307 46.9109 10.461C46.7789 10.615 46.6066 10.7397 46.3939 10.835C46.1886 10.9303 45.9576 11 45.7009 11.044C45.4443 11.088 45.1949 11.11 44.9529 11.11ZM45.1619 6.303C45.0006 6.303 44.8613 6.35067 44.7439 6.446C44.6339 6.534 44.5386 6.64767 44.4579 6.787C44.3846 6.92633 44.3259 7.08033 44.2819 7.249C44.2453 7.41767 44.2159 7.579 44.1939 7.733C44.6486 7.72567 45.0153 7.64867 45.2939 7.502C45.5799 7.35533 45.7229 7.14633 45.7229 6.875C45.7229 6.72833 45.6753 6.59633 45.5799 6.479C45.4919 6.36167 45.3526 6.303 45.1619 6.303ZM50.6314 6.435C50.6094 6.71367 50.5838 6.98867 50.5544 7.26C50.5324 7.53133 50.5104 7.788 50.4884 8.03C50.4664 8.272 50.4481 8.48833 50.4334 8.679C50.4261 8.86967 50.4224 9.01633 50.4224 9.119C50.4224 9.30967 50.4444 9.438 50.4884 9.504C50.5324 9.56267 50.6058 9.592 50.7084 9.592C50.7891 9.592 50.8588 9.57733 50.9174 9.548C50.9761 9.51867 51.0311 9.48567 51.0824 9.449C51.1338 9.41233 51.1778 9.37933 51.2144 9.35C51.2584 9.32067 51.3061 9.306 51.3574 9.306C51.4088 9.306 51.4564 9.33533 51.5004 9.394C51.5444 9.45267 51.5664 9.58833 51.5664 9.801C51.5664 10.2043 51.4564 10.5233 51.2364 10.758C51.0164 10.9927 50.6388 11.11 50.1034 11.11C49.5754 11.11 49.1831 10.989 48.9264 10.747C48.6771 10.4977 48.5524 10.12 48.5524 9.614C48.5524 9.504 48.5561 9.37567 48.5634 9.229C48.5781 9.075 48.5964 8.877 48.6184 8.635C48.6404 8.393 48.6661 8.096 48.6954 7.744C48.7321 7.392 48.7688 6.95567 48.8054 6.435H48.2224C48.1638 6.435 48.1271 6.424 48.1124 6.402C48.1051 6.37267 48.1014 6.33233 48.1014 6.281L48.1344 5.72C48.1418 5.62467 48.1528 5.533 48.1674 5.445C48.1894 5.34967 48.2261 5.26533 48.2774 5.192C48.3361 5.11867 48.4168 5.06 48.5194 5.016C48.6221 4.972 48.7578 4.95 48.9264 4.95C48.9778 4.818 49.0364 4.66033 49.1024 4.477C49.1684 4.29367 49.2344 4.11767 49.3004 3.949C49.3664 3.773 49.4288 3.62633 49.4874 3.509C49.5534 3.39167 49.6121 3.333 49.6634 3.333H49.9824C50.2904 3.333 50.5031 3.42833 50.6204 3.619C50.7378 3.80967 50.7964 4.037 50.7964 4.301C50.7964 4.44767 50.7854 4.664 50.7634 4.95H51.9184C52.0358 4.95 52.0944 5.00133 52.0944 5.104L52.0504 5.698C52.0358 5.918 51.9734 6.09767 51.8634 6.237C51.7608 6.369 51.5444 6.435 51.2144 6.435H50.6314Z" fill="white"/>
<path d="M6 2.125C5.03582 2.125 4.09329 2.41091 3.2916 2.94659C2.48991 3.48226 1.86507 4.24363 1.49609 5.13442C1.12711 6.02521 1.03057 7.00541 1.21867 7.95107C1.40678 8.89672 1.87108 9.76537 2.55286 10.4471C3.23464 11.1289 4.10328 11.5932 5.04894 11.7813C5.99459 11.9694 6.97479 11.8729 7.86558 11.5039C8.75637 11.1349 9.51774 10.5101 10.0534 9.7084C10.5891 8.90672 10.875 7.96418 10.875 7C10.8736 5.70749 10.3596 4.46831 9.44564 3.55436C8.5317 2.64042 7.29251 2.12636 6 2.125ZM6 11.125C5.18415 11.125 4.38663 10.8831 3.70827 10.4298C3.02992 9.97655 2.50121 9.33231 2.189 8.57857C1.87679 7.82482 1.7951 6.99542 1.95426 6.19525C2.11343 5.39508 2.5063 4.66008 3.08319 4.08318C3.66008 3.50629 4.39508 3.11342 5.19525 2.95426C5.99543 2.7951 6.82483 2.87679 7.57857 3.189C8.33232 3.50121 8.97655 4.02992 9.42981 4.70827C9.88307 5.38663 10.125 6.18415 10.125 7C10.1238 8.09364 9.68877 9.14213 8.91545 9.91545C8.14213 10.6888 7.09364 11.1238 6 11.125ZM8.25 7C8.25 7.09946 8.21049 7.19484 8.14017 7.26517C8.06984 7.33549 7.97446 7.375 7.875 7.375H6.375V8.875C6.375 8.97446 6.33549 9.06984 6.26517 9.14017C6.19484 9.21049 6.09946 9.25 6 9.25C5.90055 9.25 5.80516 9.21049 5.73484 9.14017C5.66451 9.06984 5.625 8.97446 5.625 8.875V7.375H4.125C4.02555 7.375 3.93016 7.33549 3.85984 7.26517C3.78951 7.19484 3.75 7.09946 3.75 7C3.75 6.90054 3.78951 6.80516 3.85984 6.73484C3.93016 6.66451 4.02555 6.625 4.125 6.625H5.625V5.125C5.625 5.02554 5.66451 4.93016 5.73484 4.85984C5.80516 4.78951 5.90055 4.75 6 4.75C6.09946 4.75 6.19484 4.78951 6.26517 4.85984C6.33549 4.93016 6.375 5.02554 6.375 5.125V6.625H7.875C7.97446 6.625 8.06984 6.66451 8.14017 6.73484C8.21049 6.80516 8.25 6.90054 8.25 7Z" fill="white"/>
</svg>
