<svg width="21" height="21" viewBox="0 0 21 21" fill="none" xmlns="http://www.w3.org/2000/svg">
<path d="M10.5313 2C8.84393 2 7.1945 2.50035 5.79155 3.43777C4.38859 4.3752 3.29512 5.7076 2.64941 7.26648C2.0037 8.82536 1.83475 10.5407 2.16393 12.1956C2.49311 13.8505 3.30563 15.3706 4.49875 16.5638C5.69187 17.7569 7.21199 18.5694 8.86689 18.8986C10.5218 19.2278 12.2371 19.0588 13.796 18.4131C15.3549 17.7674 16.6873 16.6739 17.6247 15.271C18.5622 13.868 19.0625 12.2186 19.0625 10.5312C19.0601 8.26935 18.1605 6.10079 16.5611 4.50138C14.9617 2.90198 12.7931 2.00239 10.5313 2ZM10.5313 17.75C9.10352 17.75 7.70785 17.3266 6.52073 16.5334C5.33361 15.7402 4.40837 14.6128 3.862 13.2937C3.31563 11.9747 3.17267 10.5232 3.45121 9.12294C3.72975 7.72264 4.41727 6.43638 5.42683 5.42682C6.43639 4.41726 7.72265 3.72974 9.12295 3.45121C10.5232 3.17267 11.9747 3.31562 13.2937 3.86199C14.6128 4.40836 15.7402 5.33361 16.5334 6.52073C17.3266 7.70784 17.75 9.10352 17.75 10.5312C17.7478 12.4451 16.9866 14.28 15.6333 15.6333C14.28 16.9866 12.4451 17.7478 10.5313 17.75ZM14.4688 10.5312C14.4688 10.7053 14.3996 10.8722 14.2765 10.9953C14.1535 11.1184 13.9866 11.1875 13.8125 11.1875H8.83403L10.3393 12.692C10.4003 12.7529 10.4486 12.8253 10.4816 12.905C10.5146 12.9846 10.5316 13.07 10.5316 13.1562C10.5316 13.2425 10.5146 13.3279 10.4816 13.4075C10.4486 13.4872 10.4003 13.5596 10.3393 13.6205C10.2783 13.6815 10.2059 13.7299 10.1263 13.7629C10.0466 13.7959 9.96123 13.8129 9.875 13.8129C9.78878 13.8129 9.70339 13.7959 9.62373 13.7629C9.54406 13.7299 9.47168 13.6815 9.41071 13.6205L6.78571 10.9955C6.72469 10.9346 6.67629 10.8622 6.64326 10.7826C6.61024 10.7029 6.59324 10.6175 6.59324 10.5312C6.59324 10.445 6.61024 10.3596 6.64326 10.2799C6.67629 10.2003 6.72469 10.1279 6.78571 10.067L9.41071 7.44195C9.53385 7.31881 9.70086 7.24964 9.875 7.24964C10.0491 7.24964 10.2162 7.31881 10.3393 7.44195C10.4624 7.56509 10.5316 7.7321 10.5316 7.90625C10.5316 8.0804 10.4624 8.24741 10.3393 8.37055L8.83403 9.875H13.8125C13.9866 9.875 14.1535 9.94414 14.2765 10.0672C14.3996 10.1903 14.4688 10.3572 14.4688 10.5312Z" fill="black"/>
</svg>
