<svg width="15" height="14" viewBox="0 0 15 14" fill="none" xmlns="http://www.w3.org/2000/svg">
<rect width="15" height="14" rx="7" fill="#FF8080"/>
<path d="M11.9062 4.25H10.1875V3.9375C10.1875 3.68886 10.0789 3.4504 9.88545 3.27459C9.69206 3.09877 9.42975 3 9.15625 3H7.09375C6.82025 3 6.55794 3.09877 6.36455 3.27459C6.17115 3.4504 6.0625 3.68886 6.0625 3.9375V4.25H4.34375C4.25258 4.25 4.16515 4.28292 4.10068 4.34153C4.03622 4.40013 4 4.47962 4 4.5625C4 4.64538 4.03622 4.72487 4.10068 4.78347C4.16515 4.84208 4.25258 4.875 4.34375 4.875H4.6875V10.5C4.6875 10.6658 4.75993 10.8247 4.88886 10.9419C5.0178 11.0592 5.19266 11.125 5.375 11.125H10.875C11.0573 11.125 11.2322 11.0592 11.3611 10.9419C11.4901 10.8247 11.5625 10.6658 11.5625 10.5V4.875H11.9062C11.9974 4.875 12.0849 4.84208 12.1493 4.78347C12.2138 4.72487 12.25 4.64538 12.25 4.5625C12.25 4.47962 12.2138 4.40013 12.1493 4.34153C12.0849 4.28292 11.9974 4.25 11.9062 4.25ZM6.75 3.9375C6.75 3.85462 6.78622 3.77513 6.85068 3.71653C6.91515 3.65792 7.00258 3.625 7.09375 3.625H9.15625C9.24742 3.625 9.33485 3.65792 9.39932 3.71653C9.46378 3.77513 9.5 3.85462 9.5 3.9375V4.25H6.75V3.9375ZM10.875 10.5H5.375V4.875H10.875V10.5ZM7.4375 6.4375V8.9375C7.4375 9.02038 7.40128 9.09987 7.33682 9.15847C7.27235 9.21708 7.18492 9.25 7.09375 9.25C7.00258 9.25 6.91515 9.21708 6.85068 9.15847C6.78622 9.09987 6.75 9.02038 6.75 8.9375V6.4375C6.75 6.35462 6.78622 6.27513 6.85068 6.21653C6.91515 6.15792 7.00258 6.125 7.09375 6.125C7.18492 6.125 7.27235 6.15792 7.33682 6.21653C7.40128 6.27513 7.4375 6.35462 7.4375 6.4375ZM9.5 6.4375V8.9375C9.5 9.02038 9.46378 9.09987 9.39932 9.15847C9.33485 9.21708 9.24742 9.25 9.15625 9.25C9.06508 9.25 8.97765 9.21708 8.91318 9.15847C8.84872 9.09987 8.8125 9.02038 8.8125 8.9375V6.4375C8.8125 6.35462 8.84872 6.27513 8.91318 6.21653C8.97765 6.15792 9.06508 6.125 9.15625 6.125C9.24742 6.125 9.33485 6.15792 9.39932 6.21653C9.46378 6.27513 9.5 6.35462 9.5 6.4375Z" fill="black"/>
</svg>
