<svg width="15" height="14" viewBox="0 0 15 14" fill="none" xmlns="http://www.w3.org/2000/svg">
<rect width="15" height="14" rx="7" fill="#FFFA73"/>
<path d="M11.7672 4.86601L9.84739 3.1203C9.78354 3.06225 9.70775 3.0162 9.62433 2.98478C9.5409 2.95337 9.45149 2.93719 9.36119 2.93719C9.2709 2.93719 9.18149 2.95337 9.09806 2.98478C9.01464 3.0162 8.93885 3.06225 8.875 3.1203L3.57653 7.93749C3.51241 7.99532 3.46157 8.06415 3.42698 8.14C3.39238 8.21584 3.37471 8.29718 3.375 8.37929V10.125C3.375 10.2908 3.44744 10.4497 3.57637 10.5669C3.7053 10.6841 3.88017 10.75 4.0625 10.75H5.98278C6.07309 10.7503 6.16257 10.7342 6.246 10.7027C6.32942 10.6713 6.40514 10.6251 6.46875 10.5668L11.7672 5.74999C11.8311 5.69195 11.8817 5.62305 11.9163 5.54721C11.9509 5.47137 11.9686 5.39009 11.9686 5.308C11.9686 5.22591 11.9509 5.14463 11.9163 5.06879C11.8817 4.99295 11.8311 4.92405 11.7672 4.86601ZM5.98278 10.125H4.0625V8.37929L7.84375 4.94179L9.76403 6.68749L5.98278 10.125ZM10.25 6.2453L8.32973 4.49999L9.36098 3.56249L11.2813 5.3078L10.25 6.2453Z" fill="black"/>
</svg>
