<svg width="51" height="14" viewBox="0 0 51 14" fill="none" xmlns="http://www.w3.org/2000/svg">
<path d="M16.705 11C16.2943 11 16.001 10.9193 15.825 10.758C15.649 10.5967 15.561 10.3657 15.561 10.065C15.561 9.91833 15.572 9.669 15.594 9.317C15.616 8.95767 15.6453 8.55067 15.682 8.096C15.7187 7.64133 15.7553 7.161 15.792 6.655C15.8287 6.149 15.8653 5.67233 15.902 5.225C15.9387 4.77767 15.968 4.38533 15.99 4.048C16.012 3.71067 16.023 3.47967 16.023 3.355C16.023 3.245 16.0817 3.19 16.199 3.19H16.804C17.2147 3.19 17.497 3.27067 17.651 3.432C17.8123 3.586 17.893 3.817 17.893 4.125C17.893 4.16167 17.8893 4.19467 17.882 4.224C17.882 4.25333 17.882 4.28633 17.882 4.323L17.519 9.46H19.499C19.543 9.46 19.5833 9.47467 19.62 9.504C19.6567 9.526 19.675 9.56267 19.675 9.614L19.631 10.263C19.6163 10.483 19.554 10.6627 19.444 10.802C19.3413 10.934 19.125 11 18.795 11H16.705ZM22.792 11.11C22.286 11.11 21.8643 11.0403 21.527 10.901C21.197 10.7543 20.933 10.5563 20.735 10.307C20.537 10.0577 20.3976 9.768 20.317 9.438C20.2363 9.10067 20.196 8.74133 20.196 8.36C20.196 7.92 20.2473 7.491 20.35 7.073C20.46 6.64767 20.6433 6.27 20.9 5.94C21.1566 5.61 21.494 5.346 21.912 5.148C22.3373 4.94267 22.8653 4.84 23.496 4.84C24.42 4.84 25.08 5.06733 25.476 5.522C25.8793 5.96933 26.081 6.6 26.081 7.414C26.081 7.64133 26.0626 7.89433 26.026 8.173C25.9966 8.44433 25.9343 8.71567 25.839 8.987C25.751 9.25833 25.6263 9.52233 25.465 9.779C25.311 10.0357 25.113 10.263 24.871 10.461C24.629 10.659 24.3356 10.8167 23.991 10.934C23.6536 11.0513 23.254 11.11 22.792 11.11ZM23.309 6.303C23.0303 6.303 22.8066 6.37633 22.638 6.523C22.4766 6.66233 22.352 6.83467 22.264 7.04C22.1833 7.238 22.1283 7.45067 22.099 7.678C22.077 7.898 22.066 8.085 22.066 8.239C22.066 8.723 22.143 9.07867 22.297 9.306C22.451 9.53333 22.671 9.647 22.957 9.647C23.2136 9.647 23.4226 9.56633 23.584 9.405C23.7526 9.24367 23.881 9.04933 23.969 8.822C24.0643 8.59467 24.1266 8.35633 24.156 8.107C24.1926 7.85767 24.211 7.64867 24.211 7.48C24.211 7.11333 24.1413 6.82733 24.002 6.622C23.87 6.40933 23.639 6.303 23.309 6.303ZM30.4992 9.702C30.3158 10.032 30.0922 10.2777 29.8282 10.439C29.5642 10.593 29.2342 10.67 28.8382 10.67C28.5375 10.67 28.2625 10.6223 28.0132 10.527C27.7638 10.4317 27.5512 10.2813 27.3752 10.076C27.1992 9.87067 27.0598 9.614 26.9572 9.306C26.8618 8.99067 26.8142 8.61667 26.8142 8.184C26.8142 7.832 26.8508 7.46167 26.9242 7.073C26.9975 6.677 27.1295 6.314 27.3202 5.984C27.5182 5.654 27.7858 5.38267 28.1232 5.17C28.4605 4.95 28.8932 4.84 29.4212 4.84C29.6412 4.84 29.8282 4.86567 29.9822 4.917C30.1435 4.961 30.2792 5.02333 30.3892 5.104C30.5065 5.18467 30.5982 5.28 30.6642 5.39C30.7375 5.5 30.7925 5.61733 30.8292 5.742C30.8292 5.74933 30.8292 5.72367 30.8292 5.665C30.8365 5.599 30.8438 5.52567 30.8512 5.445C30.8585 5.36433 30.8622 5.28733 30.8622 5.214C30.8695 5.13333 30.8732 5.082 30.8732 5.06C30.8805 4.98667 30.9282 4.95 31.0162 4.95H31.5222C31.9035 4.95 32.1785 5.03067 32.3472 5.192C32.5232 5.346 32.6112 5.643 32.6112 6.083C32.6112 6.14167 32.6075 6.27733 32.6002 6.49C32.5928 6.69533 32.5782 6.94467 32.5562 7.238C32.5415 7.53133 32.5195 7.85767 32.4902 8.217C32.4608 8.569 32.4278 8.92467 32.3912 9.284C32.3545 9.64333 32.3142 9.988 32.2702 10.318C32.2262 10.648 32.1785 10.9377 32.1272 11.187C32.0758 11.4363 31.9878 11.6783 31.8632 11.913C31.7385 12.1477 31.5625 12.3567 31.3352 12.54C31.1078 12.7233 30.8145 12.87 30.4552 12.98C30.1032 13.09 29.6705 13.145 29.1572 13.145C28.7685 13.145 28.4275 13.1083 28.1342 13.035C27.8482 12.9617 27.6098 12.8627 27.4192 12.738C27.2285 12.6207 27.0818 12.485 26.9792 12.331C26.8838 12.177 26.8362 12.023 26.8362 11.869C26.8362 11.7297 26.8655 11.6087 26.9242 11.506C26.9828 11.4033 27.0598 11.319 27.1552 11.253C27.2505 11.187 27.3532 11.1357 27.4632 11.099C27.5805 11.0697 27.6905 11.055 27.7932 11.055C27.9178 11.055 28.0095 11.0917 28.0682 11.165C28.1268 11.2383 28.1928 11.319 28.2662 11.407C28.3395 11.5023 28.4422 11.5867 28.5742 11.66C28.7062 11.7333 28.9115 11.77 29.1902 11.77C29.6742 11.77 30.0115 11.5903 30.2022 11.231C30.4002 10.879 30.4992 10.3693 30.4992 9.702ZM29.5752 9.207C29.8392 9.207 30.0445 9.14467 30.1912 9.02C30.3452 8.89533 30.4625 8.745 30.5432 8.569C30.6238 8.393 30.6752 8.20967 30.6972 8.019C30.7192 7.82833 30.7302 7.66333 30.7302 7.524C30.7302 7.084 30.6605 6.77233 30.5212 6.589C30.3892 6.39833 30.1875 6.303 29.9162 6.303C29.6448 6.303 29.4322 6.37633 29.2782 6.523C29.1242 6.66967 29.0068 6.84567 28.9262 7.051C28.8528 7.249 28.8052 7.45067 28.7832 7.656C28.7612 7.854 28.7502 8.008 28.7502 8.118C28.7502 8.48467 28.8125 8.75967 28.9372 8.943C29.0618 9.119 29.2745 9.207 29.5752 9.207ZM36.0478 11.11C35.5418 11.11 35.1201 11.0403 34.7828 10.901C34.4528 10.7543 34.1888 10.5563 33.9908 10.307C33.7928 10.0577 33.6535 9.768 33.5728 9.438C33.4921 9.10067 33.4518 8.74133 33.4518 8.36C33.4518 7.92 33.5031 7.491 33.6058 7.073C33.7158 6.64767 33.8991 6.27 34.1558 5.94C34.4125 5.61 34.7498 5.346 35.1678 5.148C35.5931 4.94267 36.1211 4.84 36.7518 4.84C37.6758 4.84 38.3358 5.06733 38.7318 5.522C39.1351 5.96933 39.3368 6.6 39.3368 7.414C39.3368 7.64133 39.3185 7.89433 39.2818 8.173C39.2525 8.44433 39.1901 8.71567 39.0948 8.987C39.0068 9.25833 38.8821 9.52233 38.7208 9.779C38.5668 10.0357 38.3688 10.263 38.1268 10.461C37.8848 10.659 37.5915 10.8167 37.2468 10.934C36.9095 11.0513 36.5098 11.11 36.0478 11.11ZM36.5648 6.303C36.2861 6.303 36.0625 6.37633 35.8938 6.523C35.7325 6.66233 35.6078 6.83467 35.5198 7.04C35.4391 7.238 35.3841 7.45067 35.3548 7.678C35.3328 7.898 35.3218 8.085 35.3218 8.239C35.3218 8.723 35.3988 9.07867 35.5528 9.306C35.7068 9.53333 35.9268 9.647 36.2128 9.647C36.4695 9.647 36.6785 9.56633 36.8398 9.405C37.0085 9.24367 37.1368 9.04933 37.2248 8.822C37.3201 8.59467 37.3825 8.35633 37.4118 8.107C37.4485 7.85767 37.4668 7.64867 37.4668 7.48C37.4668 7.11333 37.3971 6.82733 37.2578 6.622C37.1258 6.40933 36.8948 6.303 36.5648 6.303ZM42.259 5.885C42.259 6.039 42.2444 6.25533 42.215 6.534C42.193 6.81267 42.1674 7.10233 42.138 7.403C42.116 7.70367 42.0904 7.986 42.061 8.25C42.039 8.514 42.028 8.70467 42.028 8.822C42.028 9.07867 42.0904 9.28033 42.215 9.427C42.347 9.56633 42.5267 9.636 42.754 9.636C42.952 9.636 43.117 9.559 43.249 9.405C43.3884 9.24367 43.4984 9.03833 43.579 8.789C43.667 8.53233 43.7367 8.24267 43.788 7.92C43.8394 7.59733 43.876 7.271 43.898 6.941C43.9274 6.611 43.9494 6.292 43.964 5.984C43.986 5.66867 44.008 5.39733 44.03 5.17C44.0374 5.11133 44.0594 5.06 44.096 5.016C44.1327 4.972 44.1914 4.95 44.272 4.95H44.668C44.8954 4.95 45.0787 4.97567 45.218 5.027C45.3647 5.071 45.4784 5.137 45.559 5.225C45.647 5.313 45.7057 5.423 45.735 5.555C45.7717 5.67967 45.79 5.82633 45.79 5.995C45.79 6.105 45.7827 6.26267 45.768 6.468C45.7607 6.666 45.7424 6.94467 45.713 7.304C45.6837 7.656 45.647 8.107 45.603 8.657C45.5664 9.19967 45.5187 9.87433 45.46 10.681C45.4454 10.835 45.427 10.9267 45.405 10.956C45.3904 10.9853 45.3317 11 45.229 11H44.8C44.58 11 44.3967 10.9743 44.25 10.923C44.1107 10.8717 43.997 10.8057 43.909 10.725C43.821 10.6443 43.7587 10.549 43.722 10.439C43.6854 10.329 43.6634 10.2153 43.656 10.098C43.546 10.2887 43.4214 10.45 43.282 10.582C43.15 10.714 43.0107 10.8203 42.864 10.901C42.7174 10.9743 42.567 11.0257 42.413 11.055C42.259 11.0917 42.1087 11.11 41.962 11.11C41.6834 11.11 41.434 11.066 41.214 10.978C40.994 10.8827 40.807 10.758 40.653 10.604C40.5064 10.45 40.3927 10.2667 40.312 10.054C40.2314 9.84133 40.191 9.614 40.191 9.372C40.191 9.27667 40.1947 9.12267 40.202 8.91C40.2167 8.69 40.2314 8.44433 40.246 8.173C40.268 7.90167 40.29 7.61567 40.312 7.315C40.334 7.007 40.3524 6.71733 40.367 6.446C40.389 6.17467 40.4074 5.93633 40.422 5.731C40.444 5.52567 40.4587 5.379 40.466 5.291C40.4807 5.159 40.51 5.071 40.554 5.027C40.598 4.97567 40.6714 4.95 40.774 4.95H41.126C41.3534 4.95 41.5404 4.972 41.687 5.016C41.8337 5.06 41.9474 5.12233 42.028 5.203C42.116 5.28367 42.1747 5.38267 42.204 5.5C42.2407 5.61 42.259 5.73833 42.259 5.885ZM49.1187 6.435C49.0967 6.71367 49.0711 6.98867 49.0417 7.26C49.0197 7.53133 48.9977 7.788 48.9757 8.03C48.9537 8.272 48.9354 8.48833 48.9207 8.679C48.9134 8.86967 48.9097 9.01633 48.9097 9.119C48.9097 9.30967 48.9317 9.438 48.9757 9.504C49.0197 9.56267 49.0931 9.592 49.1957 9.592C49.2764 9.592 49.3461 9.57733 49.4047 9.548C49.4634 9.51867 49.5184 9.48567 49.5697 9.449C49.6211 9.41233 49.6651 9.37933 49.7017 9.35C49.7457 9.32067 49.7934 9.306 49.8447 9.306C49.8961 9.306 49.9437 9.33533 49.9877 9.394C50.0317 9.45267 50.0537 9.58833 50.0537 9.801C50.0537 10.2043 49.9437 10.5233 49.7237 10.758C49.5037 10.9927 49.1261 11.11 48.5907 11.11C48.0627 11.11 47.6704 10.989 47.4137 10.747C47.1644 10.4977 47.0397 10.12 47.0397 9.614C47.0397 9.504 47.0434 9.37567 47.0507 9.229C47.0654 9.075 47.0837 8.877 47.1057 8.635C47.1277 8.393 47.1534 8.096 47.1827 7.744C47.2194 7.392 47.2561 6.95567 47.2927 6.435H46.7097C46.6511 6.435 46.6144 6.424 46.5997 6.402C46.5924 6.37267 46.5887 6.33233 46.5887 6.281L46.6217 5.72C46.6291 5.62467 46.6401 5.533 46.6547 5.445C46.6767 5.34967 46.7134 5.26533 46.7647 5.192C46.8234 5.11867 46.9041 5.06 47.0067 5.016C47.1094 4.972 47.2451 4.95 47.4137 4.95C47.4651 4.818 47.5237 4.66033 47.5897 4.477C47.6557 4.29367 47.7217 4.11767 47.7877 3.949C47.8537 3.773 47.9161 3.62633 47.9747 3.509C48.0407 3.39167 48.0994 3.333 48.1507 3.333H48.4697C48.7777 3.333 48.9904 3.42833 49.1077 3.619C49.2251 3.80967 49.2837 4.037 49.2837 4.301C49.2837 4.44767 49.2727 4.664 49.2507 4.95H50.4057C50.5231 4.95 50.5817 5.00133 50.5817 5.104L50.5377 5.698C50.5231 5.918 50.4607 6.09767 50.3507 6.237C50.2481 6.369 50.0317 6.435 49.7017 6.435H49.1187Z" fill="white"/>
<path d="M5.64697 10.5294C5.64697 10.623 5.60979 10.7128 5.5436 10.779C5.47741 10.8452 5.38765 10.8823 5.29404 10.8823H2.47061C2.377 10.8823 2.28723 10.8452 2.22105 10.779C2.15486 10.7128 2.11768 10.623 2.11768 10.5294V2.7647C2.11768 2.67109 2.15486 2.58132 2.22105 2.51513C2.28723 2.44894 2.377 2.41176 2.47061 2.41176H5.29404C5.38765 2.41176 5.47741 2.44894 5.5436 2.51513C5.60979 2.58132 5.64697 2.67109 5.64697 2.7647C5.64697 2.85831 5.60979 2.94808 5.5436 3.01427C5.47741 3.08046 5.38765 3.11764 5.29404 3.11764H2.82354V10.1765H5.29404C5.38765 10.1765 5.47741 10.2136 5.5436 10.2798C5.60979 10.346 5.64697 10.4358 5.64697 10.5294ZM10.4848 6.39735L8.72011 4.63264C8.65388 4.56641 8.56406 4.52921 8.47041 4.52921C8.37675 4.52921 8.28694 4.56641 8.22071 4.63264C8.15449 4.69887 8.11728 4.78869 8.11728 4.88235C8.11728 4.976 8.15449 5.06583 8.22071 5.13205L9.38317 6.29411H5.29404C5.20044 6.29411 5.11067 6.3313 5.04448 6.39749C4.9783 6.46368 4.94111 6.55345 4.94111 6.64705C4.94111 6.74066 4.9783 6.83043 5.04448 6.89662C5.11067 6.96281 5.20044 6.99999 5.29404 6.99999H9.38317L8.22071 8.16205C8.15449 8.22828 8.11728 8.3181 8.11728 8.41176C8.11728 8.50542 8.15449 8.59524 8.22071 8.66146C8.28694 8.72769 8.37675 8.7649 8.47041 8.7649C8.56406 8.7649 8.65388 8.72769 8.72011 8.66146L10.4848 6.89676C10.5176 6.86398 10.5436 6.82505 10.5614 6.78221C10.5791 6.73936 10.5883 6.69343 10.5883 6.64705C10.5883 6.60067 10.5791 6.55474 10.5614 6.5119C10.5436 6.46905 10.5176 6.43013 10.4848 6.39735Z" fill="white"/>
</svg>
