<svg width="15" height="14" viewBox="0 0 15 14" fill="none" xmlns="http://www.w3.org/2000/svg">
<rect width="15" height="14" rx="7" fill="#87C3FF"/>
<path d="M9.5625 3.25C8.67691 3.25 7.91766 3.95937 7.5 5.04102C7.08234 3.95937 6.32309 3.25 5.4375 3.25C4.08828 3.25 3.03125 4.89727 3.03125 7C3.03125 9.10273 4.08828 10.75 5.4375 10.75C6.32309 10.75 7.08234 10.0406 7.5 8.95898C7.91766 10.0406 8.67691 10.75 9.5625 10.75C10.9117 10.75 11.9688 9.10273 11.9688 7C11.9688 4.89727 10.9117 3.25 9.5625 3.25ZM6.59422 9.28086C6.27238 9.81719 5.85086 10.125 5.4375 10.125C5.02414 10.125 4.60262 9.81719 4.28078 9.28086C4.07272 8.92217 3.92444 8.53737 3.84078 8.13906C4.0502 8.22511 4.28001 8.26206 4.50919 8.24655C4.73838 8.23103 4.95963 8.16354 5.15272 8.05024C5.34581 7.93695 5.50459 7.78146 5.61453 7.59799C5.72448 7.41452 5.78208 7.20893 5.78208 7C5.78208 6.79107 5.72448 6.58548 5.61453 6.40201C5.50459 6.21854 5.34581 6.06305 5.15272 5.94976C4.95963 5.83646 4.73838 5.76897 4.50919 5.75345C4.28001 5.73794 4.0502 5.77489 3.84078 5.86094C3.92444 5.46263 4.07272 5.07783 4.28078 4.71914C4.60262 4.18281 5.02414 3.875 5.4375 3.875C5.85086 3.875 6.27238 4.18281 6.59422 4.71914C6.95645 5.32305 7.15625 6.1332 7.15625 7C7.15625 7.8668 6.95645 8.67695 6.59422 9.28086ZM3.71875 7C3.71875 6.87639 3.75907 6.75555 3.83461 6.65277C3.91016 6.54999 4.01753 6.46988 4.14316 6.42258C4.26878 6.37527 4.40701 6.36289 4.54037 6.38701C4.67374 6.41112 4.79624 6.47065 4.89239 6.55806C4.98853 6.64547 5.05401 6.75683 5.08054 6.87807C5.10707 6.99931 5.09345 7.12497 5.04142 7.23918C4.98938 7.35338 4.90126 7.45099 4.7882 7.51967C4.67515 7.58834 4.54222 7.625 4.40625 7.625C4.22391 7.625 4.04905 7.55915 3.92011 7.44194C3.79118 7.32473 3.71875 7.16576 3.71875 7ZM10.7192 9.28086C10.3974 9.81719 9.97586 10.125 9.5625 10.125C9.14914 10.125 8.72762 9.81719 8.40578 9.28086C8.19772 8.92217 8.04944 8.53737 7.96578 8.13906C8.1752 8.22511 8.40501 8.26206 8.63419 8.24655C8.86338 8.23103 9.08463 8.16354 9.27772 8.05024C9.47081 7.93695 9.62959 7.78146 9.73953 7.59799C9.84948 7.41452 9.90708 7.20893 9.90708 7C9.90708 6.79107 9.84948 6.58548 9.73953 6.40201C9.62959 6.21854 9.47081 6.06305 9.27772 5.94976C9.08463 5.83646 8.86338 5.76897 8.63419 5.75345C8.40501 5.73794 8.1752 5.77489 7.96578 5.86094C8.04944 5.46263 8.19772 5.07783 8.40578 4.71914C8.72762 4.18281 9.14914 3.875 9.5625 3.875C9.97586 3.875 10.3974 4.18281 10.7192 4.71914C11.0814 5.32305 11.2812 6.1332 11.2812 7C11.2812 7.8668 11.0814 8.67695 10.7192 9.28086ZM7.84375 7C7.84375 6.87639 7.88407 6.75555 7.95961 6.65277C8.03516 6.54999 8.14253 6.46988 8.26816 6.42258C8.39378 6.37527 8.53201 6.36289 8.66537 6.38701C8.79874 6.41112 8.92124 6.47065 9.01739 6.55806C9.11353 6.64547 9.17901 6.75683 9.20554 6.87807C9.23207 6.99931 9.21845 7.12497 9.16642 7.23918C9.11438 7.35338 9.02626 7.45099 8.9132 7.51967C8.80015 7.58834 8.66722 7.625 8.53125 7.625C8.34891 7.625 8.17405 7.55915 8.04511 7.44194C7.91618 7.32473 7.84375 7.16576 7.84375 7Z" fill="black"/>
</svg>
