<svg width="80" height="26" viewBox="0 0 80 26" fill="none" xmlns="http://www.w3.org/2000/svg">
<path d="M34.7948 22C33.9734 22 33.3868 21.8387 33.0348 21.516C32.6828 21.1933 32.5068 20.7313 32.5068 20.13C32.5068 19.8367 32.5288 19.338 32.5728 18.634C32.6168 17.9153 32.6754 17.1013 32.7488 16.192C32.8221 15.2827 32.8954 14.322 32.9688 13.31C33.0421 12.298 33.1154 11.3447 33.1888 10.45C33.2621 9.55533 33.3208 8.77067 33.3648 8.096C33.4088 7.42133 33.4308 6.95933 33.4308 6.71C33.4308 6.49 33.5481 6.38 33.7828 6.38H41.5268C41.6148 6.38 41.6954 6.402 41.7688 6.446C41.8421 6.49 41.8788 6.57067 41.8788 6.688L41.7908 7.986C41.7614 8.426 41.6368 8.78533 41.4168 9.064C41.2114 9.328 40.7788 9.46 40.1188 9.46H37.0828L36.8628 12.562H39.9868C40.0748 12.562 40.1554 12.584 40.2288 12.628C40.3021 12.672 40.3388 12.7527 40.3388 12.87L40.2508 14.168C40.2214 14.608 40.0968 14.9673 39.8768 15.246C39.6714 15.51 39.2388 15.642 38.5788 15.642H36.6648L36.4228 18.92H41.2628C41.3508 18.92 41.4314 18.9493 41.5048 19.008C41.5781 19.052 41.6148 19.1253 41.6148 19.228L41.5268 20.526C41.4974 20.966 41.3728 21.3253 41.1528 21.604C40.9474 21.868 40.5148 22 39.8548 22H34.7948ZM47.1839 22.22C46.6119 22.22 46.0619 22.1173 45.5339 21.912C45.0205 21.7067 44.5659 21.384 44.1699 20.944C43.7885 20.504 43.4805 19.9467 43.2459 19.272C43.0259 18.5973 42.9159 17.7833 42.9159 16.83C42.9159 16.4047 42.9452 15.9353 43.0039 15.422C43.0625 14.894 43.1652 14.366 43.3119 13.838C43.4585 13.31 43.6639 12.7967 43.9279 12.298C44.1919 11.7993 44.5219 11.3593 44.9179 10.978C45.3285 10.582 45.8125 10.2667 46.3699 10.032C46.9419 9.79733 47.6092 9.68 48.3719 9.68C49.1052 9.68 49.6919 9.812 50.1319 10.076C50.5865 10.3253 50.8725 10.7653 50.9899 11.396C51.0192 10.824 51.0485 10.3253 51.0779 9.9C51.1072 9.47467 51.1292 9.07867 51.1439 8.712C51.1732 8.34533 51.2025 7.97867 51.2319 7.612C51.2612 7.24533 51.2905 6.82733 51.3199 6.358C51.3345 6.03533 51.3712 5.84467 51.4299 5.786C51.4592 5.75667 51.4959 5.742 51.5399 5.742C51.5839 5.72733 51.6645 5.72 51.7819 5.72H52.6399C53.0799 5.72 53.4465 5.77133 53.7399 5.874C54.0332 5.97667 54.2679 6.116 54.4439 6.292C54.6199 6.468 54.7445 6.67333 54.8179 6.908C54.8912 7.128 54.9279 7.36267 54.9279 7.612C54.9279 7.612 54.9132 7.79533 54.8839 8.162C54.8545 8.52867 54.8179 9.02 54.7739 9.636C54.7299 10.2373 54.6785 10.9267 54.6199 11.704C54.5612 12.4813 54.5025 13.288 54.4439 14.124C54.3852 14.9453 54.3265 15.7667 54.2679 16.588C54.2092 17.3947 54.1505 18.1427 54.0919 18.832C54.0332 19.5067 53.9819 20.0933 53.9379 20.592C53.9085 21.076 53.8865 21.3987 53.8719 21.56C53.8425 21.736 53.8059 21.8533 53.7619 21.912C53.7179 21.9707 53.5932 22 53.3879 22H52.5959C52.2879 22 51.9945 21.978 51.7159 21.934C51.4519 21.8753 51.2172 21.7873 51.0119 21.67C50.8212 21.538 50.6672 21.3693 50.5499 21.164C50.4472 20.944 50.3959 20.6653 50.3959 20.328C50.1319 20.8853 49.7285 21.34 49.1859 21.692C48.6579 22.044 47.9905 22.22 47.1839 22.22ZM49.0979 12.606C48.3499 12.606 47.7925 12.936 47.4259 13.596C47.0739 14.2413 46.8979 15.114 46.8979 16.214C46.8979 16.5953 46.9199 16.9693 46.9639 17.336C47.0225 17.7027 47.1179 18.0327 47.2499 18.326C47.3819 18.6193 47.5579 18.854 47.7779 19.03C48.0125 19.206 48.3059 19.294 48.6579 19.294C49.2885 19.294 49.8165 18.986 50.2419 18.37C50.6672 17.754 50.8799 16.786 50.8799 15.466C50.8799 15.0993 50.8579 14.7473 50.8139 14.41C50.7699 14.058 50.6819 13.75 50.5499 13.486C50.4179 13.222 50.2345 13.0093 49.9999 12.848C49.7652 12.6867 49.4645 12.606 49.0979 12.606ZM58.8086 22C58.354 22 57.98 21.956 57.6866 21.868C57.408 21.7653 57.1806 21.626 57.0046 21.45C56.8433 21.274 56.726 21.0613 56.6526 20.812C56.594 20.548 56.5646 20.2473 56.5646 19.91C56.5646 19.69 56.572 19.382 56.5866 18.986C56.616 18.5753 56.66 18.018 56.7186 17.314C56.7773 16.5953 56.8433 15.6933 56.9166 14.608C57.0046 13.508 57.1073 12.1513 57.2246 10.538C57.2393 10.2153 57.276 10.0247 57.3346 9.966C57.3786 9.922 57.496 9.9 57.6866 9.9H58.5446C58.9993 9.9 59.366 9.944 59.6446 10.032C59.938 10.12 60.1653 10.252 60.3266 10.428C60.5026 10.604 60.62 10.8167 60.6786 11.066C60.752 11.3153 60.7886 11.594 60.7886 11.902C60.7886 12.122 60.774 12.452 60.7446 12.892C60.7153 13.332 60.6713 13.9333 60.6126 14.696C60.5686 15.444 60.5026 16.3827 60.4146 17.512C60.3266 18.6267 60.2166 19.976 60.0846 21.56C60.07 21.736 60.0333 21.8533 59.9746 21.912C59.916 21.9707 59.7913 22 59.6006 22H58.8086ZM57.2466 7.304C57.2466 6.71733 57.4593 6.25533 57.8846 5.918C58.31 5.58067 58.882 5.412 59.6006 5.412C60.2313 5.412 60.686 5.544 60.9646 5.808C61.258 6.05733 61.4046 6.39467 61.4046 6.82C61.4046 7.36267 61.1993 7.81733 60.7886 8.184C60.3926 8.536 59.806 8.712 59.0286 8.712C57.8406 8.712 57.2466 8.24267 57.2466 7.304ZM67.4601 12.87C67.4161 13.4273 67.3648 13.9773 67.3061 14.52C67.2621 15.0627 67.2181 15.576 67.1741 16.06C67.1301 16.544 67.0935 16.9767 67.0641 17.358C67.0495 17.7393 67.0421 18.0327 67.0421 18.238C67.0421 18.6193 67.0861 18.876 67.1741 19.008C67.2621 19.1253 67.4088 19.184 67.6141 19.184C67.7755 19.184 67.9148 19.1547 68.0321 19.096C68.1495 19.0373 68.2595 18.9713 68.3621 18.898C68.4648 18.8247 68.5528 18.7587 68.6261 18.7C68.7141 18.6413 68.8095 18.612 68.9121 18.612C69.0148 18.612 69.1101 18.6707 69.1981 18.788C69.2861 18.9053 69.3301 19.1767 69.3301 19.602C69.3301 20.4087 69.1101 21.0467 68.6701 21.516C68.2301 21.9853 67.4748 22.22 66.4041 22.22C65.3481 22.22 64.5635 21.978 64.0501 21.494C63.5515 20.9953 63.3021 20.24 63.3021 19.228C63.3021 19.008 63.3095 18.7513 63.3241 18.458C63.3535 18.15 63.3901 17.754 63.4341 17.27C63.4781 16.786 63.5295 16.192 63.5881 15.488C63.6615 14.784 63.7348 13.9113 63.8081 12.87H62.6421C62.5248 12.87 62.4515 12.848 62.4221 12.804C62.4075 12.7453 62.4001 12.6647 62.4001 12.562L62.4661 11.44C62.4808 11.2493 62.5028 11.066 62.5321 10.89C62.5761 10.6993 62.6495 10.5307 62.7521 10.384C62.8695 10.2373 63.0308 10.12 63.2361 10.032C63.4415 9.944 63.7128 9.9 64.0501 9.9C64.1528 9.636 64.2701 9.32067 64.4021 8.954C64.5341 8.58733 64.6661 8.23533 64.7981 7.898C64.9301 7.546 65.0548 7.25267 65.1721 7.018C65.3041 6.78333 65.4215 6.666 65.5241 6.666H66.1621C66.7781 6.666 67.2035 6.85667 67.4381 7.238C67.6728 7.61933 67.7901 8.074 67.7901 8.602C67.7901 8.89533 67.7681 9.328 67.7241 9.9H70.0341C70.2688 9.9 70.3861 10.0027 70.3861 10.208L70.2981 11.396C70.2688 11.836 70.1441 12.1953 69.9241 12.474C69.7188 12.738 69.2861 12.87 68.6261 12.87H67.4601Z" fill="black"/>
<path d="M25.3906 6.41884L19.5821 0.609363C19.389 0.416174 19.1597 0.262925 18.9073 0.15837C18.6549 0.0538145 18.3844 0 18.1112 0C17.838 0 17.5675 0.0538145 17.3151 0.15837C17.0627 0.262925 16.8334 0.416174 16.6402 0.609363L0.609717 16.6403C0.415729 16.8328 0.261929 17.0619 0.157259 17.3143C0.0525893 17.5667 -0.000862481 17.8374 1.05236e-05 18.1106V23.9201C1.05236e-05 24.4717 0.219155 25.0007 0.609235 25.3908C0.999316 25.7809 1.52838 26 2.08003 26H7.8898C8.16306 26.0009 8.43376 25.9474 8.68617 25.8427C8.93858 25.7381 9.16767 25.5843 9.36012 25.3903L25.3906 9.36063C25.5838 9.16748 25.7371 8.93817 25.8416 8.68579C25.9462 8.43342 26 8.16291 26 7.88973C26 7.61655 25.9462 7.34605 25.8416 7.09367C25.7371 6.84129 25.5838 6.61198 25.3906 6.41884ZM7.8898 23.9201H2.08003V18.1106L13.5202 6.67103L19.3299 12.4805L7.8898 23.9201ZM20.8003 11.009L14.9905 5.20079L18.1105 2.08091L23.9203 7.88908L20.8003 11.009Z" fill="black"/>
</svg>
