<svg width="107" height="21" viewBox="0 0 107 21" fill="none" xmlns="http://www.w3.org/2000/svg">
<path d="M25.472 5.88C25.4827 5.79467 25.5147 5.736 25.568 5.704C25.632 5.66133 25.6907 5.64 25.744 5.64C26.4693 5.64 27.1467 5.61867 27.776 5.576C28.416 5.52267 28.9173 5.496 29.28 5.496C30.1867 5.496 30.944 5.58667 31.552 5.768C32.1707 5.94933 32.6667 6.232 33.04 6.616C33.424 7 33.696 7.496 33.856 8.104C34.016 8.712 34.096 9.44267 34.096 10.296C34.096 11.16 34.0053 12.008 33.824 12.84C33.6533 13.6613 33.3493 14.392 32.912 15.032C32.4747 15.672 31.8827 16.1893 31.136 16.584C30.4 16.968 29.4667 17.16 28.336 17.16C27.8133 17.16 27.3333 17.1493 26.896 17.128C26.4693 17.1067 26.1013 17.0427 25.792 16.936C25.4827 16.8293 25.2427 16.6693 25.072 16.456C24.9013 16.2427 24.816 15.9493 24.816 15.576C24.816 15.4373 24.8213 15.2293 24.832 14.952C24.8533 14.6747 24.8747 14.344 24.896 13.96C24.928 13.576 24.96 13.1547 24.992 12.696C25.0347 12.2267 25.0773 11.736 25.12 11.224C25.2053 10.168 25.2693 9.32533 25.312 8.696C25.3653 8.06667 25.3973 7.576 25.408 7.224C25.4293 6.86133 25.44 6.58933 25.44 6.408C25.4507 6.22667 25.4613 6.05067 25.472 5.88ZM28.448 14.632C29.0453 14.632 29.52 14.504 29.872 14.248C30.2347 13.992 30.512 13.6667 30.704 13.272C30.896 12.8773 31.024 12.4453 31.088 11.976C31.152 11.5067 31.184 11.064 31.184 10.648C31.184 10.2 31.152 9.81067 31.088 9.48C31.0347 9.13867 30.9333 8.856 30.784 8.632C30.6453 8.408 30.448 8.24267 30.192 8.136C29.936 8.01867 29.616 7.96 29.232 7.96C29.1147 7.96 28.9653 7.96533 28.784 7.976C28.6027 7.98667 28.384 8.00267 28.128 8.024C28.1067 8.41867 28.08 8.888 28.048 9.432C28.016 9.96533 27.9787 10.5307 27.936 11.128C27.904 11.7147 27.8667 12.312 27.824 12.92C27.7813 13.5173 27.7387 14.072 27.696 14.584C27.856 14.6053 28 14.6213 28.128 14.632C28.256 14.632 28.3627 14.632 28.448 14.632ZM34.8323 15.032C34.8323 14.072 35.2643 13.32 36.1283 12.776C36.9923 12.232 38.2669 11.9387 39.9523 11.896C39.9629 11.7787 39.9683 11.6827 39.9683 11.608C39.9789 11.5227 39.9843 11.4213 39.9843 11.304C39.9843 10.9627 39.9203 10.6907 39.7923 10.488C39.6643 10.2853 39.3976 10.184 38.9923 10.184C38.7683 10.184 38.5869 10.216 38.4483 10.28C38.3096 10.344 38.1976 10.4347 38.1123 10.552C38.0269 10.6587 37.9576 10.792 37.9043 10.952C37.8509 11.112 37.8029 11.288 37.7603 11.48C37.7389 11.576 37.6909 11.64 37.6163 11.672C37.5416 11.6933 37.4243 11.704 37.2643 11.704C36.1763 11.704 35.6323 11.2933 35.6323 10.472C35.6323 10.1413 35.7069 9.82667 35.8563 9.528C36.0163 9.22933 36.2456 8.97333 36.5443 8.76C36.8536 8.536 37.2376 8.36 37.6963 8.232C38.1549 8.104 38.6883 8.04 39.2963 8.04C40.4803 8.04 41.3389 8.28533 41.8723 8.776C42.4056 9.26667 42.6723 9.96 42.6723 10.856C42.6723 10.9733 42.6563 11.1867 42.6243 11.496C42.6029 11.7947 42.5709 12.1147 42.5283 12.456C42.4963 12.7867 42.4643 13.1013 42.4323 13.4C42.4109 13.6987 42.4003 13.9067 42.4003 14.024C42.4003 14.2907 42.4483 14.4827 42.5443 14.6C42.6403 14.7067 42.7469 14.7813 42.8643 14.824C42.9923 14.8667 43.1043 14.8987 43.2003 14.92C43.2963 14.9413 43.3443 14.9947 43.3443 15.08C43.3443 15.3147 43.3123 15.5547 43.2483 15.8C43.1843 16.0453 43.0776 16.2693 42.9283 16.472C42.7896 16.6747 42.5923 16.84 42.3363 16.968C42.0909 17.096 41.7869 17.16 41.4243 17.16C40.9123 17.16 40.5283 17.0373 40.2723 16.792C40.0163 16.5467 39.8456 16.2053 39.7603 15.768C39.5043 16.1413 39.1683 16.4667 38.7523 16.744C38.3469 17.0213 37.8136 17.16 37.1523 17.16C36.8323 17.16 36.5283 17.1227 36.2403 17.048C35.9629 16.9733 35.7176 16.8507 35.5043 16.68C35.3016 16.5093 35.1363 16.2907 35.0083 16.024C34.8909 15.7467 34.8323 15.416 34.8323 15.032ZM39.8083 13.208C39.5309 13.208 39.2589 13.2293 38.9923 13.272C38.7256 13.3147 38.4856 13.384 38.2723 13.48C38.0696 13.5653 37.9043 13.6827 37.7763 13.832C37.6483 13.9813 37.5843 14.1627 37.5843 14.376C37.5843 14.6213 37.6589 14.792 37.8083 14.888C37.9683 14.984 38.1389 15.032 38.3203 15.032C38.4909 15.032 38.6616 14.9947 38.8323 14.92C39.0029 14.8453 39.1523 14.7333 39.2803 14.584C39.4189 14.424 39.5363 14.232 39.6323 14.008C39.7283 13.784 39.7869 13.5173 39.8083 13.208ZM48.0559 8.04C48.9625 8.04 49.6292 8.22133 50.0559 8.584C50.4825 8.936 50.6959 9.38933 50.6959 9.944C50.6959 10.4133 50.5465 10.7707 50.2479 11.016C49.9599 11.2613 49.5385 11.384 48.9839 11.384C48.8345 11.384 48.7332 11.368 48.6799 11.336C48.6265 11.304 48.5999 11.2453 48.5999 11.16C48.5999 11.064 48.5892 10.9573 48.5679 10.84C48.5572 10.712 48.5199 10.5947 48.4559 10.488C48.4025 10.3707 48.3119 10.2747 48.1839 10.2C48.0665 10.1253 47.8959 10.088 47.6719 10.088C47.3732 10.088 47.1332 10.1627 46.9519 10.312C46.7705 10.4507 46.6799 10.6267 46.6799 10.84C46.6799 11.064 46.7705 11.2453 46.9519 11.384C47.1439 11.512 47.3785 11.6347 47.6559 11.752C47.9439 11.8693 48.2532 11.992 48.5839 12.12C48.9145 12.2373 49.2185 12.3973 49.4959 12.6C49.7839 12.8027 50.0185 13.0587 50.1999 13.368C50.3919 13.6667 50.4879 14.056 50.4879 14.536C50.4879 15.304 50.2159 15.9333 49.6719 16.424C49.1279 16.9147 48.3119 17.16 47.2239 17.16C46.9252 17.16 46.5785 17.1333 46.1839 17.08C45.7999 17.0373 45.4319 16.968 45.0799 16.872C44.7279 16.7653 44.4292 16.6267 44.1839 16.456C43.9492 16.2853 43.8319 16.072 43.8319 15.816C43.8319 15.72 43.8479 15.6027 43.8799 15.464C43.9225 15.3253 43.9812 15.192 44.0559 15.064C44.1412 14.936 44.2372 14.8293 44.3439 14.744C44.4612 14.648 44.5999 14.6 44.7599 14.6C44.8879 14.6 45.0052 14.632 45.1119 14.696C45.2185 14.76 45.3412 14.8293 45.4799 14.904C45.6292 14.968 45.8105 15.032 46.0239 15.096C46.2372 15.16 46.5199 15.192 46.8719 15.192C47.1385 15.192 47.3732 15.16 47.5759 15.096C47.7892 15.032 47.8959 14.888 47.8959 14.664C47.8959 14.4613 47.8105 14.3013 47.6399 14.184C47.4692 14.056 47.2505 13.9387 46.9839 13.832C46.7279 13.7253 46.4452 13.6133 46.1359 13.496C45.8372 13.368 45.5545 13.2027 45.2879 13C45.0319 12.7973 44.8185 12.5413 44.6479 12.232C44.4772 11.912 44.3919 11.5013 44.3919 11C44.3919 10.456 44.4985 9.99733 44.7119 9.624C44.9359 9.24 45.2185 8.93067 45.5599 8.696C45.9119 8.46133 46.3065 8.296 46.7439 8.2C47.1812 8.09333 47.6185 8.04 48.0559 8.04ZM57.1555 15.016C57.1875 14.664 57.2195 14.296 57.2515 13.912C57.2942 13.528 57.3262 13.16 57.3475 12.808C57.3795 12.456 57.4062 12.1413 57.4275 11.864C57.4488 11.5867 57.4595 11.384 57.4595 11.256C57.4595 10.9787 57.3902 10.7333 57.2515 10.52C57.1235 10.296 56.8675 10.184 56.4835 10.184C55.9715 10.184 55.5555 10.424 55.2355 10.904C54.9262 11.384 54.7448 12.024 54.6915 12.824C54.6702 13.048 54.6435 13.3627 54.6115 13.768C54.5795 14.1627 54.5475 14.568 54.5155 14.984C54.4835 15.3893 54.4515 15.7573 54.4195 16.088C54.3982 16.408 54.3875 16.6053 54.3875 16.68C54.3875 16.808 54.3608 16.8933 54.3075 16.936C54.2648 16.9787 54.1742 17 54.0355 17H53.4595C53.1288 17 52.8568 16.968 52.6435 16.904C52.4408 16.8293 52.2755 16.728 52.1475 16.6C52.0302 16.472 51.9448 16.3173 51.8915 16.136C51.8488 15.944 51.8275 15.7253 51.8275 15.48C51.8275 15.2453 51.8435 14.92 51.8755 14.504C51.9182 14.0773 51.9715 13.496 52.0355 12.76C52.0995 12.0133 52.1742 11.064 52.2595 9.912C52.3448 8.76 52.4355 7.33067 52.5315 5.624C52.5422 5.38933 52.5688 5.25067 52.6115 5.208C52.6435 5.176 52.7288 5.16 52.8675 5.16H53.4915C53.8115 5.16 54.0782 5.19733 54.2915 5.272C54.5048 5.34667 54.6755 5.448 54.8035 5.576C54.9315 5.704 55.0222 5.85333 55.0755 6.024C55.1288 6.184 55.1555 6.35467 55.1555 6.536C55.1555 6.728 55.1342 7.08533 55.0915 7.608C55.0595 8.13067 55.0168 8.744 54.9635 9.448C55.2835 8.91467 55.6355 8.54667 56.0195 8.344C56.4142 8.14133 56.9102 8.04 57.5075 8.04C57.9555 8.04 58.3448 8.088 58.6755 8.184C59.0062 8.28 59.2782 8.44533 59.4915 8.68C59.7155 8.904 59.8808 9.20267 59.9875 9.576C60.0942 9.93867 60.1475 10.392 60.1475 10.936C60.1475 11.1067 60.1315 11.4 60.0995 11.816C60.0675 12.232 60.0248 12.7067 59.9715 13.24C59.9288 13.7733 59.8808 14.3333 59.8275 14.92C59.7848 15.496 59.7475 16.024 59.7155 16.504C59.7048 16.6213 59.6942 16.712 59.6835 16.776C59.6728 16.84 59.6515 16.888 59.6195 16.92C59.5982 16.952 59.5608 16.9733 59.5075 16.984C59.4542 16.9947 59.3795 17 59.2835 17H58.7715C58.4302 17 58.1528 16.968 57.9395 16.904C57.7262 16.84 57.5608 16.7493 57.4435 16.632C57.3262 16.5147 57.2408 16.3707 57.1875 16.2C57.1448 16.0187 57.1235 15.816 57.1235 15.592C57.1235 15.4853 57.1235 15.384 57.1235 15.288C57.1342 15.192 57.1448 15.1013 57.1555 15.016ZM65.2419 17.16C64.4205 17.16 63.7699 17.0427 63.2899 16.808C62.8099 16.5627 62.4472 16.2587 62.2019 15.896C61.9565 15.5333 61.8019 15.144 61.7379 14.728C61.6739 14.3013 61.6419 13.912 61.6419 13.56C61.6419 13.4213 61.6525 13.1493 61.6739 12.744C61.7059 12.3387 61.7432 11.8693 61.7859 11.336C61.8285 10.8027 61.8712 10.2373 61.9139 9.64C61.9565 9.032 61.9992 8.46133 62.0419 7.928C62.0845 7.384 62.1165 6.904 62.1379 6.488C62.1699 6.072 62.1859 5.784 62.1859 5.624C62.1859 5.38933 62.2019 5.256 62.2339 5.224C62.2659 5.18133 62.3619 5.16 62.5219 5.16H63.1459C63.4659 5.16 63.7325 5.19733 63.9459 5.272C64.1592 5.34667 64.3299 5.448 64.4579 5.576C64.5859 5.704 64.6765 5.85333 64.7299 6.024C64.7832 6.184 64.8099 6.36 64.8099 6.552C64.8099 6.73333 64.7885 7.08533 64.7459 7.608C64.7139 8.13067 64.6712 8.744 64.6179 9.448C64.8952 8.968 65.2099 8.616 65.5619 8.392C65.9139 8.15733 66.3779 8.04 66.9539 8.04C67.9245 8.04 68.6659 8.36 69.1779 9C69.7005 9.64 69.9619 10.5947 69.9619 11.864C69.9619 12.1947 69.9352 12.5573 69.8819 12.952C69.8392 13.3467 69.7539 13.7413 69.6259 14.136C69.5085 14.52 69.3379 14.8987 69.1139 15.272C68.9005 15.6347 68.6179 15.9547 68.2659 16.232C67.9139 16.5093 67.4872 16.7333 66.9859 16.904C66.4952 17.0747 65.9139 17.16 65.2419 17.16ZM65.9619 10.168C65.5779 10.168 65.2739 10.2693 65.0499 10.472C64.8365 10.6747 64.6712 10.92 64.5539 11.208C64.4365 11.496 64.3619 11.8053 64.3299 12.136C64.2979 12.456 64.2819 12.7387 64.2819 12.984C64.2819 13.72 64.3832 14.248 64.5859 14.568C64.7885 14.8773 65.0925 15.032 65.4979 15.032C65.8819 15.032 66.1805 14.9147 66.3939 14.68C66.6179 14.4347 66.7832 14.1467 66.8899 13.816C67.0072 13.4853 67.0819 13.1493 67.1139 12.808C67.1459 12.4667 67.1619 12.2 67.1619 12.008C67.1619 11.4107 67.0712 10.9573 66.8899 10.648C66.7085 10.328 66.3992 10.168 65.9619 10.168ZM74.7556 17.16C74.0196 17.16 73.4063 17.0587 72.9156 16.856C72.4356 16.6427 72.0516 16.3547 71.7636 15.992C71.4756 15.6293 71.273 15.208 71.1556 14.728C71.0383 14.2373 70.9796 13.7147 70.9796 13.16C70.9796 12.52 71.0543 11.896 71.2036 11.288C71.3636 10.6693 71.6303 10.12 72.0036 9.64C72.377 9.16 72.8676 8.776 73.4756 8.488C74.0943 8.18933 74.8623 8.04 75.7796 8.04C77.1236 8.04 78.0836 8.37067 78.6596 9.032C79.2463 9.68267 79.5396 10.6 79.5396 11.784C79.5396 12.1147 79.513 12.4827 79.4596 12.888C79.417 13.2827 79.3263 13.6773 79.1876 14.072C79.0596 14.4667 78.8783 14.8507 78.6436 15.224C78.4196 15.5973 78.1316 15.928 77.7796 16.216C77.4276 16.504 77.001 16.7333 76.4996 16.904C76.009 17.0747 75.4276 17.16 74.7556 17.16ZM75.5076 10.168C75.1023 10.168 74.777 10.2747 74.5316 10.488C74.297 10.6907 74.1156 10.9413 73.9876 11.24C73.8703 11.528 73.7903 11.8373 73.7476 12.168C73.7156 12.488 73.6996 12.76 73.6996 12.984C73.6996 13.688 73.8116 14.2053 74.0356 14.536C74.2596 14.8667 74.5796 15.032 74.9956 15.032C75.369 15.032 75.673 14.9147 75.9076 14.68C76.153 14.4453 76.3396 14.1627 76.4676 13.832C76.6063 13.5013 76.697 13.1547 76.7396 12.792C76.793 12.4293 76.8196 12.1253 76.8196 11.88C76.8196 11.3467 76.7183 10.9307 76.5156 10.632C76.3236 10.3227 75.9876 10.168 75.5076 10.168ZM80.2541 15.032C80.2541 14.072 80.6861 13.32 81.5501 12.776C82.4141 12.232 83.6888 11.9387 85.3741 11.896C85.3848 11.7787 85.3901 11.6827 85.3901 11.608C85.4008 11.5227 85.4061 11.4213 85.4061 11.304C85.4061 10.9627 85.3421 10.6907 85.2141 10.488C85.0861 10.2853 84.8195 10.184 84.4141 10.184C84.1901 10.184 84.0088 10.216 83.8701 10.28C83.7315 10.344 83.6195 10.4347 83.5341 10.552C83.4488 10.6587 83.3795 10.792 83.3261 10.952C83.2728 11.112 83.2248 11.288 83.1821 11.48C83.1608 11.576 83.1128 11.64 83.0381 11.672C82.9635 11.6933 82.8461 11.704 82.6861 11.704C81.5981 11.704 81.0541 11.2933 81.0541 10.472C81.0541 10.1413 81.1288 9.82667 81.2781 9.528C81.4381 9.22933 81.6675 8.97333 81.9661 8.76C82.2755 8.536 82.6595 8.36 83.1181 8.232C83.5768 8.104 84.1101 8.04 84.7181 8.04C85.9021 8.04 86.7608 8.28533 87.2941 8.776C87.8275 9.26667 88.0941 9.96 88.0941 10.856C88.0941 10.9733 88.0781 11.1867 88.0461 11.496C88.0248 11.7947 87.9928 12.1147 87.9501 12.456C87.9181 12.7867 87.8861 13.1013 87.8541 13.4C87.8328 13.6987 87.8221 13.9067 87.8221 14.024C87.8221 14.2907 87.8701 14.4827 87.9661 14.6C88.0621 14.7067 88.1688 14.7813 88.2861 14.824C88.4141 14.8667 88.5261 14.8987 88.6221 14.92C88.7181 14.9413 88.7661 14.9947 88.7661 15.08C88.7661 15.3147 88.7341 15.5547 88.6701 15.8C88.6061 16.0453 88.4995 16.2693 88.3501 16.472C88.2115 16.6747 88.0141 16.84 87.7581 16.968C87.5128 17.096 87.2088 17.16 86.8461 17.16C86.3341 17.16 85.9501 17.0373 85.6941 16.792C85.4381 16.5467 85.2675 16.2053 85.1821 15.768C84.9261 16.1413 84.5901 16.4667 84.1741 16.744C83.7688 17.0213 83.2355 17.16 82.5741 17.16C82.2541 17.16 81.9501 17.1227 81.6621 17.048C81.3848 16.9733 81.1395 16.8507 80.9261 16.68C80.7235 16.5093 80.5581 16.2907 80.4301 16.024C80.3128 15.7467 80.2541 15.416 80.2541 15.032ZM85.2301 13.208C84.9528 13.208 84.6808 13.2293 84.4141 13.272C84.1475 13.3147 83.9075 13.384 83.6941 13.48C83.4915 13.5653 83.3261 13.6827 83.1981 13.832C83.0701 13.9813 83.0061 14.1627 83.0061 14.376C83.0061 14.6213 83.0808 14.792 83.2301 14.888C83.3901 14.984 83.5608 15.032 83.7421 15.032C83.9128 15.032 84.0835 14.9947 84.2541 14.92C84.4248 14.8453 84.5741 14.7333 84.7021 14.584C84.8408 14.424 84.9581 14.232 85.0541 14.008C85.1501 13.784 85.2088 13.5173 85.2301 13.208ZM94.9178 12.024C94.8538 12.024 94.7791 12.024 94.6938 12.024C94.6191 12.0133 94.5444 12.0027 94.4698 11.992C94.3951 11.9707 94.3311 11.9493 94.2778 11.928C94.2244 11.896 94.1978 11.8587 94.1978 11.816C94.1978 11.6773 94.2031 11.5493 94.2138 11.432C94.2244 11.3147 94.2298 11.192 94.2298 11.064C94.2298 10.8293 94.1978 10.6373 94.1338 10.488C94.0698 10.3387 93.9418 10.264 93.7498 10.264C93.4511 10.264 93.2004 10.4613 92.9978 10.856C92.8058 11.24 92.6831 11.8213 92.6298 12.6C92.6084 12.9413 92.5764 13.3307 92.5338 13.768C92.5018 14.1947 92.4698 14.6107 92.4378 15.016C92.4058 15.4107 92.3791 15.7627 92.3578 16.072C92.3364 16.3813 92.3258 16.584 92.3258 16.68C92.3258 16.7867 92.2884 16.8667 92.2138 16.92C92.1391 16.9733 92.0591 17 91.9738 17H91.3978C91.0671 17 90.7951 16.968 90.5818 16.904C90.3791 16.8293 90.2138 16.728 90.0858 16.6C89.9684 16.472 89.8831 16.3173 89.8298 16.136C89.7871 15.944 89.7658 15.7253 89.7658 15.48C89.7658 15.32 89.7711 15.096 89.7818 14.808C89.8031 14.5093 89.8351 14.104 89.8778 13.592C89.9204 13.0693 89.9684 12.4133 90.0218 11.624C90.0858 10.824 90.1604 9.83733 90.2458 8.664C90.2671 8.35467 90.3791 8.2 90.5818 8.2H91.2057C91.5044 8.2 91.7551 8.232 91.9578 8.296C92.1604 8.36 92.3258 8.45067 92.4538 8.568C92.5818 8.67467 92.6724 8.80267 92.7258 8.952C92.7898 9.10133 92.8324 9.256 92.8538 9.416C92.9818 9.17067 93.1311 8.96267 93.3018 8.792C93.4831 8.61067 93.6698 8.46667 93.8618 8.36C94.0538 8.24267 94.2511 8.16267 94.4538 8.12C94.6564 8.06667 94.8431 8.04 95.0138 8.04C95.2164 8.04 95.4191 8.07733 95.6218 8.152C95.8351 8.22667 96.0271 8.33867 96.1978 8.488C96.3684 8.63733 96.5018 8.82933 96.5978 9.064C96.7044 9.29867 96.7578 9.576 96.7578 9.896C96.7578 10.184 96.7151 10.456 96.6298 10.712C96.5444 10.968 96.4218 11.1973 96.2618 11.4C96.1018 11.592 95.9044 11.7467 95.6698 11.864C95.4458 11.9707 95.1951 12.024 94.9178 12.024ZM100.334 17.16C99.918 17.16 99.518 17.0853 99.134 16.936C98.7607 16.7867 98.43 16.552 98.142 16.232C97.8647 15.912 97.6407 15.5067 97.47 15.016C97.31 14.5253 97.23 13.9333 97.23 13.24C97.23 12.9307 97.2513 12.5893 97.294 12.216C97.3367 11.832 97.4113 11.448 97.518 11.064C97.6247 10.68 97.774 10.3067 97.966 9.944C98.158 9.58133 98.398 9.26133 98.686 8.984C98.9847 8.696 99.3367 8.46667 99.742 8.296C100.158 8.12533 100.643 8.04 101.198 8.04C101.731 8.04 102.158 8.136 102.478 8.328C102.809 8.50933 103.017 8.82933 103.102 9.288C103.123 8.872 103.145 8.50933 103.166 8.2C103.187 7.89067 103.203 7.60267 103.214 7.336C103.235 7.06933 103.257 6.80267 103.278 6.536C103.299 6.26933 103.321 5.96533 103.342 5.624C103.353 5.38933 103.379 5.25067 103.422 5.208C103.443 5.18667 103.47 5.176 103.502 5.176C103.534 5.16533 103.593 5.16 103.678 5.16H104.302C104.622 5.16 104.889 5.19733 105.102 5.272C105.315 5.34667 105.486 5.448 105.614 5.576C105.742 5.704 105.833 5.85333 105.886 6.024C105.939 6.184 105.966 6.35467 105.966 6.536C105.966 6.536 105.955 6.66933 105.934 6.936C105.913 7.20267 105.886 7.56 105.854 8.008C105.822 8.44533 105.785 8.94667 105.742 9.512C105.699 10.0773 105.657 10.664 105.614 11.272C105.571 11.8693 105.529 12.4667 105.486 13.064C105.443 13.6507 105.401 14.1947 105.358 14.696C105.315 15.1867 105.278 15.6133 105.246 15.976C105.225 16.328 105.209 16.5627 105.198 16.68C105.177 16.808 105.15 16.8933 105.118 16.936C105.086 16.9787 104.995 17 104.846 17H104.27C104.046 17 103.833 16.984 103.63 16.952C103.438 16.9093 103.267 16.8453 103.118 16.76C102.979 16.664 102.867 16.5413 102.782 16.392C102.707 16.232 102.67 16.0293 102.67 15.784C102.478 16.1893 102.185 16.52 101.79 16.776C101.406 17.032 100.921 17.16 100.334 17.16ZM101.726 10.168C101.182 10.168 100.777 10.408 100.51 10.888C100.254 11.3573 100.126 11.992 100.126 12.792C100.126 13.0693 100.142 13.3413 100.174 13.608C100.217 13.8747 100.286 14.1147 100.382 14.328C100.478 14.5413 100.606 14.712 100.766 14.84C100.937 14.968 101.15 15.032 101.406 15.032C101.865 15.032 102.249 14.808 102.558 14.36C102.867 13.912 103.022 13.208 103.022 12.248C103.022 11.9813 103.006 11.7253 102.974 11.48C102.942 11.224 102.878 11 102.782 10.808C102.686 10.616 102.553 10.4613 102.382 10.344C102.211 10.2267 101.993 10.168 101.726 10.168Z" fill="black"/>
<path d="M7.21875 5.25C7.21875 5.07595 7.28789 4.90903 7.41096 4.78596C7.53403 4.66289 7.70095 4.59375 7.875 4.59375H17.7188C17.8928 4.59375 18.0597 4.66289 18.1828 4.78596C18.3059 4.90903 18.375 5.07595 18.375 5.25C18.375 5.42405 18.3059 5.59097 18.1828 5.71404C18.0597 5.83711 17.8928 5.90625 17.7188 5.90625H7.875C7.70095 5.90625 7.53403 5.83711 7.41096 5.71404C7.28789 5.59097 7.21875 5.42405 7.21875 5.25ZM17.7188 9.84375H7.875C7.70095 9.84375 7.53403 9.91289 7.41096 10.036C7.28789 10.159 7.21875 10.326 7.21875 10.5C7.21875 10.674 7.28789 10.841 7.41096 10.964C7.53403 11.0871 7.70095 11.1562 7.875 11.1562H17.7188C17.8928 11.1562 18.0597 11.0871 18.1828 10.964C18.3059 10.841 18.375 10.674 18.375 10.5C18.375 10.326 18.3059 10.159 18.1828 10.036C18.0597 9.91289 17.8928 9.84375 17.7188 9.84375ZM17.7188 15.0938H7.875C7.70095 15.0938 7.53403 15.1629 7.41096 15.286C7.28789 15.409 7.21875 15.576 7.21875 15.75C7.21875 15.924 7.28789 16.091 7.41096 16.214C7.53403 16.3371 7.70095 16.4062 7.875 16.4062H17.7188C17.8928 16.4062 18.0597 16.3371 18.1828 16.214C18.3059 16.091 18.375 15.924 18.375 15.75C18.375 15.576 18.3059 15.409 18.1828 15.286C18.0597 15.1629 17.8928 15.0938 17.7188 15.0938ZM4.59375 4.59375H3.28125C3.1072 4.59375 2.94028 4.66289 2.81721 4.78596C2.69414 4.90903 2.625 5.07595 2.625 5.25C2.625 5.42405 2.69414 5.59097 2.81721 5.71404C2.94028 5.83711 3.1072 5.90625 3.28125 5.90625H4.59375C4.7678 5.90625 4.93472 5.83711 5.05779 5.71404C5.18086 5.59097 5.25 5.42405 5.25 5.25C5.25 5.07595 5.18086 4.90903 5.05779 4.78596C4.93472 4.66289 4.7678 4.59375 4.59375 4.59375ZM4.59375 9.84375H3.28125C3.1072 9.84375 2.94028 9.91289 2.81721 10.036C2.69414 10.159 2.625 10.326 2.625 10.5C2.625 10.674 2.69414 10.841 2.81721 10.964C2.94028 11.0871 3.1072 11.1562 3.28125 11.1562H4.59375C4.7678 11.1562 4.93472 11.0871 5.05779 10.964C5.18086 10.841 5.25 10.674 5.25 10.5C5.25 10.326 5.18086 10.159 5.05779 10.036C4.93472 9.91289 4.7678 9.84375 4.59375 9.84375ZM4.59375 15.0938H3.28125C3.1072 15.0938 2.94028 15.1629 2.81721 15.286C2.69414 15.409 2.625 15.576 2.625 15.75C2.625 15.924 2.69414 16.091 2.81721 16.214C2.94028 16.3371 3.1072 16.4062 3.28125 16.4062H4.59375C4.7678 16.4062 4.93472 16.3371 5.05779 16.214C5.18086 16.091 5.25 15.924 5.25 15.75C5.25 15.576 5.18086 15.409 5.05779 15.286C4.93472 15.1629 4.7678 15.0938 4.59375 15.0938Z" fill="black"/>
</svg>
