<svg width="88" height="26" viewBox="0 0 88 26" fill="none" xmlns="http://www.w3.org/2000/svg">
<path d="M15.4375 2.375C13.3443 2.375 11.5497 4.29031 10.5625 7.21074C9.57531 4.29031 7.7807 2.375 5.6875 2.375C2.49844 2.375 0 6.82262 0 12.5C0 18.1774 2.49844 22.625 5.6875 22.625C7.7807 22.625 9.57531 20.7097 10.5625 17.7893C11.5497 20.7097 13.3443 22.625 15.4375 22.625C18.6266 22.625 21.125 18.1774 21.125 12.5C21.125 6.82262 18.6266 2.375 15.4375 2.375ZM8.42156 18.6583C7.66086 20.1064 6.66453 20.9375 5.6875 20.9375C4.71047 20.9375 3.71414 20.1064 2.95344 18.6583C2.46167 17.6899 2.11118 16.6509 1.91344 15.5755C2.40844 15.8078 2.95162 15.9076 3.49332 15.8657C4.03503 15.8238 4.55799 15.6416 5.01439 15.3357C5.47079 15.0298 5.84607 14.6099 6.10594 14.1146C6.36581 13.6192 6.50196 13.0641 6.50196 12.5C6.50196 11.9359 6.36581 11.3808 6.10594 10.8854C5.84607 10.3901 5.47079 9.97025 5.01439 9.66434C4.55799 9.35844 4.03503 9.17621 3.49332 9.13432C2.95162 9.09243 2.40844 9.1922 1.91344 9.42453C2.11118 8.3491 2.46167 7.31014 2.95344 6.34168C3.71414 4.89359 4.71047 4.0625 5.6875 4.0625C6.66453 4.0625 7.66086 4.89359 8.42156 6.34168C9.27773 7.97223 9.75 10.1596 9.75 12.5C9.75 14.8404 9.27773 17.0278 8.42156 18.6583ZM1.625 12.5C1.625 12.1662 1.7203 11.84 1.89886 11.5625C2.07742 11.285 2.33121 11.0687 2.62814 10.941C2.92507 10.8132 3.2518 10.7798 3.56702 10.8449C3.88224 10.91 4.17179 11.0708 4.39905 11.3068C4.62631 11.5428 4.78108 11.8434 4.84378 12.1708C4.90648 12.4981 4.8743 12.8374 4.7513 13.1458C4.62831 13.4541 4.42003 13.7177 4.1528 13.9031C3.88557 14.0885 3.57139 14.1875 3.25 14.1875C2.81902 14.1875 2.4057 14.0097 2.10095 13.6932C1.7962 13.3768 1.625 12.9476 1.625 12.5ZM18.1716 18.6583C17.4109 20.1064 16.4145 20.9375 15.4375 20.9375C14.4605 20.9375 13.4641 20.1064 12.7034 18.6583C12.2117 17.6899 11.8612 16.6509 11.6634 15.5755C12.1584 15.8078 12.7016 15.9076 13.2433 15.8657C13.785 15.8238 14.308 15.6416 14.7644 15.3357C15.2208 15.0298 15.5961 14.6099 15.8559 14.1146C16.1158 13.6192 16.252 13.0641 16.252 12.5C16.252 11.9359 16.1158 11.3808 15.8559 10.8854C15.5961 10.3901 15.2208 9.97025 14.7644 9.66434C14.308 9.35844 13.785 9.17621 13.2433 9.13432C12.7016 9.09243 12.1584 9.1922 11.6634 9.42453C11.8612 8.3491 12.2117 7.31014 12.7034 6.34168C13.4641 4.89359 14.4605 4.0625 15.4375 4.0625C16.4145 4.0625 17.4109 4.89359 18.1716 6.34168C19.0277 7.97223 19.5 10.1596 19.5 12.5C19.5 14.8404 19.0277 17.0278 18.1716 18.6583ZM11.375 12.5C11.375 12.1662 11.4703 11.84 11.6489 11.5625C11.8274 11.285 12.0812 11.0687 12.3781 10.941C12.6751 10.8132 13.0018 10.7798 13.317 10.8449C13.6322 10.91 13.9218 11.0708 14.149 11.3068C14.3763 11.5428 14.5311 11.8434 14.5938 12.1708C14.6565 12.4981 14.6243 12.8374 14.5013 13.1458C14.3783 13.4541 14.17 13.7177 13.9028 13.9031C13.6356 14.0885 13.3214 14.1875 13 14.1875C12.569 14.1875 12.1557 14.0097 11.851 13.6932C11.5462 13.3768 11.375 12.9476 11.375 12.5Z" fill="black"/>
<path d="M37.7345 6.16C39.1132 6.16 40.1325 6.46067 40.7925 7.062C41.4672 7.66333 41.8045 8.448 41.8045 9.416C41.8045 10.2373 41.5772 10.868 41.1225 11.308C40.6678 11.7333 40.0152 11.946 39.1645 11.946C38.9005 11.946 38.7318 11.924 38.6585 11.88C38.5852 11.8213 38.5485 11.7113 38.5485 11.55C38.5485 11.4033 38.5338 11.2127 38.5045 10.978C38.4898 10.7433 38.4385 10.516 38.3505 10.296C38.2625 10.076 38.1232 9.89267 37.9325 9.746C37.7418 9.58467 37.4778 9.504 37.1405 9.504C36.6712 9.504 36.2532 9.65067 35.8865 9.944C35.5198 10.2227 35.3365 10.5893 35.3365 11.044C35.3365 11.44 35.4832 11.7627 35.7765 12.012C36.0845 12.2613 36.4658 12.496 36.9205 12.716C37.3752 12.9213 37.8665 13.134 38.3945 13.354C38.9372 13.574 39.4358 13.8673 39.8905 14.234C40.3452 14.586 40.7192 15.0333 41.0125 15.576C41.3205 16.104 41.4745 16.7787 41.4745 17.6C41.4745 18.2453 41.3645 18.854 41.1445 19.426C40.9392 19.9833 40.6238 20.4747 40.1985 20.9C39.7878 21.3107 39.2598 21.6333 38.6145 21.868C37.9838 22.1027 37.2432 22.22 36.3925 22.22C35.6592 22.22 34.9772 22.1393 34.3465 21.978C33.7305 21.8167 33.1878 21.6187 32.7185 21.384C32.2638 21.1347 31.9045 20.8707 31.6405 20.592C31.3765 20.2987 31.2445 20.0347 31.2445 19.8C31.2445 18.832 31.2958 18.1353 31.3985 17.71C31.5158 17.2847 31.7212 17.072 32.0145 17.072C32.2198 17.072 32.4325 17.16 32.6525 17.336C32.8872 17.512 33.1512 17.71 33.4445 17.93C33.7378 18.15 34.0752 18.348 34.4565 18.524C34.8525 18.7 35.3072 18.788 35.8205 18.788C36.0258 18.788 36.2238 18.7733 36.4145 18.744C36.6198 18.7 36.7958 18.634 36.9425 18.546C37.1038 18.458 37.2285 18.3407 37.3165 18.194C37.4192 18.0473 37.4705 17.8713 37.4705 17.666C37.4705 17.2993 37.3312 17.006 37.0525 16.786C36.7738 16.566 36.4218 16.368 35.9965 16.192C35.5712 16.0013 35.1092 15.8107 34.6105 15.62C34.1265 15.4147 33.6718 15.1433 33.2465 14.806C32.8212 14.454 32.4692 14.0067 32.1905 13.464C31.9118 12.9213 31.7725 12.2247 31.7725 11.374C31.7725 10.4207 31.9485 9.614 32.3005 8.954C32.6672 8.294 33.1292 7.75867 33.6865 7.348C34.2585 6.92267 34.8965 6.622 35.6005 6.446C36.3192 6.25533 37.0305 6.16 37.7345 6.16ZM50.6708 19.272C50.7148 18.788 50.7588 18.282 50.8028 17.754C50.8615 17.226 50.9055 16.72 50.9348 16.236C50.9788 15.752 51.0155 15.3193 51.0448 14.938C51.0742 14.5567 51.0888 14.278 51.0888 14.102C51.0888 13.7207 50.9935 13.3833 50.8028 13.09C50.6268 12.782 50.2748 12.628 49.7468 12.628C49.0428 12.628 48.4708 12.958 48.0308 13.618C47.6055 14.278 47.3562 15.158 47.2828 16.258C47.2535 16.566 47.2168 16.9987 47.1728 17.556C47.1288 18.0987 47.0848 18.656 47.0408 19.228C46.9968 19.7853 46.9528 20.2913 46.9088 20.746C46.8795 21.186 46.8648 21.4573 46.8648 21.56C46.8648 21.736 46.8282 21.8533 46.7548 21.912C46.6962 21.9707 46.5715 22 46.3808 22H45.5888C45.1342 22 44.7602 21.956 44.4668 21.868C44.1882 21.7653 43.9608 21.626 43.7848 21.45C43.6235 21.274 43.5062 21.0613 43.4328 20.812C43.3742 20.548 43.3448 20.2473 43.3448 19.91C43.3448 19.5873 43.3668 19.14 43.4108 18.568C43.4695 17.9813 43.5428 17.182 43.6308 16.17C43.7188 15.1433 43.8215 13.838 43.9388 12.254C44.0562 10.67 44.1808 8.70467 44.3128 6.358C44.3275 6.03533 44.3642 5.84467 44.4228 5.786C44.4668 5.742 44.5842 5.72 44.7748 5.72H45.6328C46.0728 5.72 46.4395 5.77133 46.7328 5.874C47.0262 5.97667 47.2608 6.116 47.4368 6.292C47.6128 6.468 47.7375 6.67333 47.8108 6.908C47.8842 7.128 47.9208 7.36267 47.9208 7.612C47.9208 7.876 47.8915 8.36733 47.8328 9.086C47.7888 9.80467 47.7302 10.648 47.6568 11.616C48.0968 10.8827 48.5808 10.3767 49.1088 10.098C49.6515 9.81933 50.3335 9.68 51.1548 9.68C51.7708 9.68 52.3062 9.746 52.7608 9.878C53.2155 10.01 53.5895 10.2373 53.8828 10.56C54.1908 10.868 54.4182 11.2787 54.5648 11.792C54.7115 12.2907 54.7848 12.914 54.7848 13.662C54.7848 13.8967 54.7628 14.3 54.7188 14.872C54.6748 15.444 54.6162 16.0967 54.5428 16.83C54.4842 17.5633 54.4182 18.3333 54.3448 19.14C54.2862 19.932 54.2348 20.658 54.1908 21.318C54.1762 21.4793 54.1615 21.604 54.1468 21.692C54.1322 21.78 54.1028 21.846 54.0588 21.89C54.0295 21.934 53.9782 21.9633 53.9048 21.978C53.8315 21.9927 53.7288 22 53.5968 22H52.8928C52.4235 22 52.0422 21.956 51.7488 21.868C51.4555 21.78 51.2282 21.6553 51.0668 21.494C50.9055 21.3327 50.7882 21.1347 50.7148 20.9C50.6562 20.6507 50.6268 20.372 50.6268 20.064C50.6268 19.9173 50.6268 19.778 50.6268 19.646C50.6415 19.514 50.6562 19.3893 50.6708 19.272ZM61.6796 22.22C60.6676 22.22 59.8243 22.0807 59.1496 21.802C58.4896 21.5087 57.9616 21.1127 57.5656 20.614C57.1696 20.1153 56.8909 19.536 56.7296 18.876C56.5683 18.2013 56.4876 17.4827 56.4876 16.72C56.4876 15.84 56.5903 14.982 56.7956 14.146C57.0156 13.2953 57.3823 12.54 57.8956 11.88C58.4089 11.22 59.0836 10.692 59.9196 10.296C60.7703 9.88533 61.8263 9.68 63.0876 9.68C64.9356 9.68 66.2556 10.1347 67.0476 11.044C67.8543 11.9387 68.2576 13.2 68.2576 14.828C68.2576 15.2827 68.2209 15.7887 68.1476 16.346C68.0889 16.8887 67.9643 17.4313 67.7736 17.974C67.5976 18.5167 67.3483 19.0447 67.0256 19.558C66.7176 20.0713 66.3216 20.526 65.8376 20.922C65.3536 21.318 64.7669 21.6333 64.0776 21.868C63.4029 22.1027 62.6036 22.22 61.6796 22.22ZM62.7136 12.606C62.1563 12.606 61.7089 12.7527 61.3716 13.046C61.0489 13.3247 60.7996 13.6693 60.6236 14.08C60.4623 14.476 60.3523 14.9013 60.2936 15.356C60.2496 15.796 60.2276 16.17 60.2276 16.478C60.2276 17.446 60.3816 18.1573 60.6896 18.612C60.9976 19.0667 61.4376 19.294 62.0096 19.294C62.5229 19.294 62.9409 19.1327 63.2636 18.81C63.6009 18.4873 63.8576 18.0987 64.0336 17.644C64.2243 17.1893 64.3489 16.7127 64.4076 16.214C64.4809 15.7153 64.5176 15.2973 64.5176 14.96C64.5176 14.2267 64.3783 13.6547 64.0996 13.244C63.8356 12.8187 63.3736 12.606 62.7136 12.606ZM81.5417 19.646C81.7323 18.5753 81.8937 17.644 82.0257 16.852C82.1723 16.0453 82.2897 15.3487 82.3777 14.762C82.4803 14.1753 82.561 13.6693 82.6197 13.244C82.693 12.8187 82.7517 12.4447 82.7957 12.122C82.8543 11.7847 82.8983 11.4913 82.9277 11.242C82.9717 10.978 83.0157 10.7067 83.0597 10.428C83.089 10.2667 83.1623 10.142 83.2797 10.054C83.4117 9.966 83.6537 9.922 84.0057 9.922C84.1963 9.922 84.4603 9.93667 84.7977 9.966C85.1497 9.98067 85.4943 10.032 85.8317 10.12C86.169 10.208 86.455 10.3473 86.6897 10.538C86.939 10.714 87.0637 10.9633 87.0637 11.286C87.0637 11.5207 86.9977 11.8727 86.8657 12.342C86.7337 12.7967 86.565 13.3247 86.3597 13.926C86.1543 14.5273 85.9197 15.1727 85.6557 15.862C85.3917 16.5367 85.1203 17.2113 84.8417 17.886C84.5777 18.546 84.321 19.1767 84.0717 19.778C83.8223 20.3793 83.6097 20.9 83.4337 21.34C83.3163 21.604 83.199 21.78 83.0817 21.868C82.979 21.956 82.7883 22 82.5097 22H81.2117C80.801 22 80.4637 21.9487 80.1997 21.846C79.9357 21.7433 79.723 21.604 79.5617 21.428C79.4003 21.252 79.2757 21.054 79.1877 20.834C79.0997 20.5993 79.0337 20.35 78.9897 20.086C78.843 19.338 78.689 18.3333 78.5277 17.072C78.3663 15.8107 78.2197 14.322 78.0877 12.606C78.0143 12.9287 77.9263 13.3613 77.8237 13.904C77.7357 14.4467 77.633 15.0333 77.5157 15.664C77.413 16.2947 77.303 16.94 77.1857 17.6C77.0683 18.26 76.9583 18.876 76.8557 19.448C76.753 20.0053 76.6577 20.4893 76.5697 20.9C76.4817 21.296 76.4083 21.5527 76.3497 21.67C76.2763 21.8167 76.181 21.912 76.0637 21.956C75.961 21.9853 75.807 22 75.6017 22H74.0617C73.6803 22 73.3503 21.9487 73.0717 21.846C72.8077 21.7287 72.573 21.582 72.3677 21.406C72.177 21.23 72.0157 21.032 71.8837 20.812C71.7663 20.5773 71.6783 20.3353 71.6197 20.086C70.813 16.9473 70.2043 14.5787 69.7937 12.98C69.3977 11.3813 69.1997 10.5233 69.1997 10.406C69.1997 10.274 69.2657 10.1567 69.3977 10.054C69.5297 9.95133 69.6983 9.9 69.9037 9.9C70.5343 9.9 71.077 9.92933 71.5317 9.988C71.9863 10.032 72.3603 10.12 72.6537 10.252C72.9617 10.384 73.1963 10.5673 73.3577 10.802C73.519 11.0367 73.6217 11.3447 73.6657 11.726C73.6803 11.9313 73.7097 12.3493 73.7537 12.98C73.7977 13.6107 73.8417 14.3293 73.8857 15.136C73.9443 15.928 73.9957 16.7347 74.0397 17.556C74.0983 18.3773 74.1497 19.074 74.1937 19.646C74.3697 18.7367 74.509 18.0107 74.6117 17.468C74.729 16.9253 74.8243 16.4707 74.8977 16.104C74.971 15.7373 75.0297 15.4147 75.0737 15.136C75.1323 14.8573 75.1983 14.5273 75.2717 14.146C75.345 13.7647 75.4257 13.288 75.5137 12.716C75.6163 12.144 75.7557 11.3813 75.9317 10.428C75.9903 10.076 76.379 9.9 77.0977 9.9C77.5523 9.9 77.9777 9.91467 78.3737 9.944C78.7697 9.97333 79.1217 10.0467 79.4297 10.164C79.7377 10.2667 80.0017 10.428 80.2217 10.648C80.4417 10.8533 80.5957 11.1393 80.6837 11.506C80.713 11.6087 80.735 11.7113 80.7497 11.814C80.779 11.9167 80.8083 12.0633 80.8377 12.254C80.867 12.4447 80.8963 12.7087 80.9257 13.046C80.9697 13.3833 81.0137 13.838 81.0577 14.41C81.1163 14.982 81.1823 15.6933 81.2557 16.544C81.329 17.3947 81.4243 18.4287 81.5417 19.646Z" fill="black"/>
</svg>
