<svg width="111" height="27" viewBox="0 0 111 27" fill="none" xmlns="http://www.w3.org/2000/svg">
<path d="M13 2.53125C10.9109 2.53125 8.86879 3.17456 7.13179 4.37982C5.3948 5.58508 4.04098 7.29816 3.24153 9.30244C2.44208 11.3067 2.2329 13.5122 2.64046 15.6399C3.04802 17.7676 4.054 19.7221 5.53119 21.2561C7.00838 22.7901 8.89044 23.8348 10.9394 24.258C12.9883 24.6812 15.1121 24.464 17.0421 23.6338C18.9721 22.8036 20.6218 21.3977 21.7824 19.5939C22.943 17.7901 23.5625 15.6694 23.5625 13.5C23.5595 10.5918 22.4458 7.80369 20.4656 5.74731C18.4853 3.69094 15.8004 2.53432 13 2.53125ZM13 22.7812C11.2323 22.7812 9.50436 22.2369 8.0346 21.2171C6.56483 20.1972 5.41929 18.7477 4.74283 17.0518C4.06637 15.3559 3.88938 13.4897 4.23424 11.6893C4.57909 9.88893 5.43031 8.23517 6.68024 6.93717C7.93017 5.63916 9.52268 4.75521 11.2564 4.39709C12.9901 4.03897 14.7871 4.22277 16.4202 4.92524C18.0534 5.62772 19.4492 6.81732 20.4313 8.34361C21.4133 9.86991 21.9375 11.6643 21.9375 13.5C21.9348 15.9607 20.9923 18.3198 19.3168 20.0598C17.6413 21.7997 15.3696 22.7785 13 22.7812ZM17.875 13.5C17.875 13.7238 17.7894 13.9384 17.637 14.0966C17.4847 14.2549 17.278 14.3438 17.0625 14.3438H13.8125V17.7188C13.8125 17.9425 13.7269 18.1571 13.5745 18.3154C13.4222 18.4736 13.2155 18.5625 13 18.5625C12.7845 18.5625 12.5779 18.4736 12.4255 18.3154C12.2731 18.1571 12.1875 17.9425 12.1875 17.7188V14.3438H8.9375C8.72202 14.3438 8.51535 14.2549 8.36298 14.0966C8.21061 13.9384 8.125 13.7238 8.125 13.5C8.125 13.2762 8.21061 13.0616 8.36298 12.9034C8.51535 12.7451 8.72202 12.6562 8.9375 12.6562H12.1875V9.28125C12.1875 9.05747 12.2731 8.84286 12.4255 8.68463C12.5779 8.5264 12.7845 8.4375 13 8.4375C13.2155 8.4375 13.4222 8.5264 13.5745 8.68463C13.7269 8.84286 13.8125 9.05747 13.8125 9.28125V12.6562H17.0625C17.278 12.6562 17.4847 12.7451 17.637 12.9034C17.7894 13.0616 17.875 13.2762 17.875 13.5Z" fill="black"/>
<path d="M40.052 6.38C40.4187 6.38 40.7193 6.45333 40.954 6.6C41.2033 6.732 41.4087 6.91533 41.57 7.15C41.7313 7.37 41.8633 7.62667 41.966 7.92C42.0687 8.21333 42.1567 8.514 42.23 8.822C42.8167 11.198 43.3007 13.156 43.682 14.696C44.0633 16.236 44.364 17.4827 44.584 18.436C44.804 19.3747 44.958 20.0713 45.046 20.526C45.134 20.9807 45.178 21.296 45.178 21.472C45.178 21.6773 45.1267 21.8167 45.024 21.89C44.936 21.9633 44.7893 22 44.584 22H43.462C42.8313 22 42.3253 21.9267 41.944 21.78C41.5773 21.6187 41.2913 21.3913 41.086 21.098C40.8953 20.8047 40.756 20.4527 40.668 20.042C40.58 19.6167 40.5067 19.14 40.448 18.612H36.62L35.894 21.648C35.8207 21.8827 35.652 22 35.388 22H34.222C33.9873 22 33.7453 21.978 33.496 21.934C33.2467 21.8753 33.0193 21.7873 32.814 21.67C32.6233 21.5527 32.462 21.406 32.33 21.23C32.198 21.0393 32.132 20.812 32.132 20.548C32.132 20.2253 32.2347 19.6973 32.44 18.964C32.6453 18.2307 32.902 17.402 33.21 16.478C33.5327 15.5393 33.8847 14.564 34.266 13.552C34.662 12.5253 35.0433 11.5573 35.41 10.648C35.7767 9.73867 36.1067 8.93933 36.4 8.25C36.708 7.56067 36.9427 7.07667 37.104 6.798C37.2213 6.59267 37.324 6.47533 37.412 6.446C37.5147 6.402 37.698 6.38 37.962 6.38H40.052ZM37.412 15.422H39.942L39.018 9.614L37.412 15.422ZM50.4202 22.22C49.8482 22.22 49.2982 22.1173 48.7702 21.912C48.2569 21.7067 47.8022 21.384 47.4062 20.944C47.0249 20.504 46.7169 19.9467 46.4822 19.272C46.2622 18.5973 46.1522 17.7833 46.1522 16.83C46.1522 16.4047 46.1815 15.9353 46.2402 15.422C46.2989 14.894 46.4015 14.366 46.5482 13.838C46.6949 13.31 46.9002 12.7967 47.1642 12.298C47.4282 11.7993 47.7582 11.3593 48.1542 10.978C48.5649 10.582 49.0489 10.2667 49.6062 10.032C50.1782 9.79733 50.8455 9.68 51.6082 9.68C52.3415 9.68 52.9282 9.812 53.3682 10.076C53.8229 10.3253 54.1089 10.7653 54.2262 11.396C54.2555 10.824 54.2849 10.3253 54.3142 9.9C54.3435 9.47467 54.3655 9.07867 54.3802 8.712C54.4095 8.34533 54.4389 7.97867 54.4682 7.612C54.4975 7.24533 54.5269 6.82733 54.5562 6.358C54.5709 6.03533 54.6075 5.84467 54.6662 5.786C54.6955 5.75667 54.7322 5.742 54.7762 5.742C54.8202 5.72733 54.9009 5.72 55.0182 5.72H55.8762C56.3162 5.72 56.6829 5.77133 56.9762 5.874C57.2695 5.97667 57.5042 6.116 57.6802 6.292C57.8562 6.468 57.9809 6.67333 58.0542 6.908C58.1275 7.128 58.1642 7.36267 58.1642 7.612C58.1642 7.612 58.1495 7.79533 58.1202 8.162C58.0909 8.52867 58.0542 9.02 58.0102 9.636C57.9662 10.2373 57.9149 10.9267 57.8562 11.704C57.7975 12.4813 57.7389 13.288 57.6802 14.124C57.6215 14.9453 57.5629 15.7667 57.5042 16.588C57.4455 17.3947 57.3869 18.1427 57.3282 18.832C57.2695 19.5067 57.2182 20.0933 57.1742 20.592C57.1449 21.076 57.1229 21.3987 57.1082 21.56C57.0789 21.736 57.0422 21.8533 56.9982 21.912C56.9542 21.9707 56.8295 22 56.6242 22H55.8322C55.5242 22 55.2309 21.978 54.9522 21.934C54.6882 21.8753 54.4535 21.7873 54.2482 21.67C54.0575 21.538 53.9035 21.3693 53.7862 21.164C53.6835 20.944 53.6322 20.6653 53.6322 20.328C53.3682 20.8853 52.9649 21.34 52.4222 21.692C51.8942 22.044 51.2269 22.22 50.4202 22.22ZM52.3342 12.606C51.5862 12.606 51.0289 12.936 50.6622 13.596C50.3102 14.2413 50.1342 15.114 50.1342 16.214C50.1342 16.5953 50.1562 16.9693 50.2002 17.336C50.2589 17.7027 50.3542 18.0327 50.4862 18.326C50.6182 18.6193 50.7942 18.854 51.0142 19.03C51.2489 19.206 51.5422 19.294 51.8942 19.294C52.5249 19.294 53.0529 18.986 53.4782 18.37C53.9035 17.754 54.1162 16.786 54.1162 15.466C54.1162 15.0993 54.0942 14.7473 54.0502 14.41C54.0062 14.058 53.9182 13.75 53.7862 13.486C53.6542 13.222 53.4709 13.0093 53.2362 12.848C53.0015 12.6867 52.7009 12.606 52.3342 12.606ZM63.805 22.22C63.233 22.22 62.683 22.1173 62.155 21.912C61.6416 21.7067 61.187 21.384 60.791 20.944C60.4096 20.504 60.1016 19.9467 59.867 19.272C59.647 18.5973 59.537 17.7833 59.537 16.83C59.537 16.4047 59.5663 15.9353 59.625 15.422C59.6836 14.894 59.7863 14.366 59.933 13.838C60.0796 13.31 60.285 12.7967 60.549 12.298C60.813 11.7993 61.143 11.3593 61.539 10.978C61.9496 10.582 62.4336 10.2667 62.991 10.032C63.563 9.79733 64.2303 9.68 64.993 9.68C65.7263 9.68 66.313 9.812 66.753 10.076C67.2076 10.3253 67.4936 10.7653 67.611 11.396C67.6403 10.824 67.6696 10.3253 67.699 9.9C67.7283 9.47467 67.7503 9.07867 67.765 8.712C67.7943 8.34533 67.8236 7.97867 67.853 7.612C67.8823 7.24533 67.9116 6.82733 67.941 6.358C67.9556 6.03533 67.9923 5.84467 68.051 5.786C68.0803 5.75667 68.117 5.742 68.161 5.742C68.205 5.72733 68.2856 5.72 68.403 5.72H69.261C69.701 5.72 70.0676 5.77133 70.361 5.874C70.6543 5.97667 70.889 6.116 71.065 6.292C71.241 6.468 71.3656 6.67333 71.439 6.908C71.5123 7.128 71.549 7.36267 71.549 7.612C71.549 7.612 71.5343 7.79533 71.505 8.162C71.4756 8.52867 71.439 9.02 71.395 9.636C71.351 10.2373 71.2996 10.9267 71.241 11.704C71.1823 12.4813 71.1236 13.288 71.065 14.124C71.0063 14.9453 70.9476 15.7667 70.889 16.588C70.8303 17.3947 70.7716 18.1427 70.713 18.832C70.6543 19.5067 70.603 20.0933 70.559 20.592C70.5296 21.076 70.5076 21.3987 70.493 21.56C70.4636 21.736 70.427 21.8533 70.383 21.912C70.339 21.9707 70.2143 22 70.009 22H69.217C68.909 22 68.6156 21.978 68.337 21.934C68.073 21.8753 67.8383 21.7873 67.633 21.67C67.4423 21.538 67.2883 21.3693 67.171 21.164C67.0683 20.944 67.017 20.6653 67.017 20.328C66.753 20.8853 66.3496 21.34 65.807 21.692C65.279 22.044 64.6116 22.22 63.805 22.22ZM65.719 12.606C64.971 12.606 64.4136 12.936 64.047 13.596C63.695 14.2413 63.519 15.114 63.519 16.214C63.519 16.5953 63.541 16.9693 63.585 17.336C63.6436 17.7027 63.739 18.0327 63.871 18.326C64.003 18.6193 64.179 18.854 64.399 19.03C64.6336 19.206 64.927 19.294 65.279 19.294C65.9096 19.294 66.4376 18.986 66.863 18.37C67.2883 17.754 67.501 16.786 67.501 15.466C67.501 15.0993 67.479 14.7473 67.435 14.41C67.391 14.058 67.303 13.75 67.171 13.486C67.039 13.222 66.8556 13.0093 66.621 12.848C66.3863 12.6867 66.0856 12.606 65.719 12.606ZM80.3983 22C79.5623 22 78.9683 21.8387 78.6163 21.516C78.2789 21.1787 78.1103 20.6873 78.1103 20.042C78.1103 19.8513 78.1176 19.5507 78.1323 19.14C78.1616 18.7147 78.1983 18.216 78.2423 17.644C78.2863 17.072 78.3303 16.4487 78.3743 15.774C78.4329 15.0993 78.4916 14.41 78.5503 13.706C78.6236 12.8407 78.6823 12.1 78.7263 11.484C78.7849 10.8533 78.8289 10.318 78.8583 9.878C78.8876 9.42333 78.9096 9.04933 78.9243 8.756C78.9536 8.448 78.9683 8.184 78.9683 7.964C78.9829 7.72933 78.9903 7.51667 78.9903 7.326C79.0049 7.13533 79.0123 6.93 79.0123 6.71C79.0123 6.59267 79.0489 6.512 79.1223 6.468C79.1956 6.40933 79.2689 6.38 79.3423 6.38C79.7236 6.38 80.1416 6.37267 80.5963 6.358C81.0509 6.32867 81.5056 6.29933 81.9603 6.27C82.4149 6.24067 82.8549 6.21867 83.2803 6.204C83.7056 6.17467 84.0796 6.16 84.4023 6.16C85.3409 6.16 86.1476 6.27733 86.8223 6.512C87.4969 6.732 88.0396 7.062 88.4503 7.502C88.8756 7.92733 89.1836 8.448 89.3743 9.064C89.5796 9.68 89.6823 10.384 89.6823 11.176C89.6823 12.0413 89.5649 12.8773 89.3303 13.684C89.1103 14.476 88.7583 15.18 88.2743 15.796C87.7903 16.412 87.1669 16.9033 86.4043 17.27C85.6416 17.6367 84.7323 17.82 83.6763 17.82C83.0456 17.82 82.5103 17.754 82.0703 17.622L81.7623 21.67C81.7476 21.7873 81.7183 21.8753 81.6743 21.934C81.6303 21.978 81.5423 22 81.4103 22H80.3983ZM83.9623 9.46C83.7716 9.46 83.5589 9.47467 83.3243 9.504C83.0896 9.51867 82.8403 9.54067 82.5763 9.57C82.5469 10.186 82.5103 10.934 82.4663 11.814C82.4223 12.694 82.3636 13.618 82.2903 14.586C82.5103 14.6447 82.7229 14.6887 82.9283 14.718C83.1483 14.7327 83.3463 14.74 83.5223 14.74C84.0356 14.74 84.4463 14.6227 84.7543 14.388C85.0769 14.1387 85.3263 13.838 85.5023 13.486C85.6783 13.134 85.7956 12.7673 85.8543 12.386C85.9129 12.0047 85.9423 11.6747 85.9423 11.396C85.9423 10.7653 85.7956 10.2887 85.5023 9.966C85.2236 9.62867 84.7103 9.46 83.9623 9.46ZM95.9059 22.22C95.2605 22.22 94.6152 22.1393 93.9699 21.978C93.3392 21.8167 92.7672 21.538 92.2539 21.142C91.7552 20.746 91.3445 20.218 91.0219 19.558C90.6992 18.898 90.5379 18.0693 90.5379 17.072C90.5379 16.7053 90.5672 16.2653 90.6259 15.752C90.6845 15.2387 90.7945 14.7107 90.9559 14.168C91.1319 13.6253 91.3665 13.09 91.6599 12.562C91.9679 12.0193 92.3639 11.5353 92.8479 11.11C93.3319 10.6847 93.9185 10.34 94.6079 10.076C95.2972 9.812 96.1185 9.68 97.0719 9.68C97.8345 9.68 98.4799 9.768 99.0079 9.944C99.5359 10.12 99.9612 10.362 100.284 10.67C100.607 10.9633 100.841 11.308 100.988 11.704C101.135 12.1 101.208 12.5253 101.208 12.98C101.208 13.6547 101.069 14.2267 100.79 14.696C100.526 15.1653 100.174 15.5613 99.7339 15.884C99.3085 16.192 98.8319 16.434 98.3039 16.61C97.7759 16.786 97.2552 16.9253 96.7419 17.028C96.2285 17.116 95.7519 17.1747 95.3119 17.204C94.8865 17.2187 94.5565 17.226 94.3219 17.226C94.3219 17.5047 94.3585 17.7833 94.4319 18.062C94.5199 18.326 94.6445 18.5607 94.8059 18.766C94.9672 18.9713 95.1799 19.14 95.4439 19.272C95.7079 19.404 96.0305 19.47 96.4119 19.47C96.7932 19.47 97.0865 19.4113 97.2919 19.294C97.5119 19.162 97.6879 19.0227 97.8199 18.876C97.9519 18.7147 98.0619 18.5753 98.1499 18.458C98.2525 18.326 98.3845 18.26 98.5459 18.26C98.6192 18.26 98.7439 18.282 98.9199 18.326C99.1105 18.3553 99.3012 18.4287 99.4919 18.546C99.6825 18.6633 99.8512 18.8247 99.9979 19.03C100.145 19.2353 100.218 19.4993 100.218 19.822C100.218 20.2473 100.086 20.614 99.8219 20.922C99.5579 21.23 99.2132 21.4793 98.7879 21.67C98.3772 21.8607 97.9152 22 97.4019 22.088C96.8885 22.176 96.3899 22.22 95.9059 22.22ZM96.3239 12.606C96.0012 12.606 95.7225 12.7013 95.4879 12.892C95.2679 13.068 95.0772 13.2953 94.9159 13.574C94.7692 13.8527 94.6519 14.1607 94.5639 14.498C94.4905 14.8353 94.4319 15.158 94.3879 15.466C95.2972 15.4513 96.0305 15.2973 96.5879 15.004C97.1599 14.7107 97.4459 14.2927 97.4459 13.75C97.4459 13.4567 97.3505 13.1927 97.1599 12.958C96.9839 12.7233 96.7052 12.606 96.3239 12.606ZM107.263 12.87C107.219 13.4273 107.168 13.9773 107.109 14.52C107.065 15.0627 107.021 15.576 106.977 16.06C106.933 16.544 106.896 16.9767 106.867 17.358C106.852 17.7393 106.845 18.0327 106.845 18.238C106.845 18.6193 106.889 18.876 106.977 19.008C107.065 19.1253 107.212 19.184 107.417 19.184C107.578 19.184 107.718 19.1547 107.835 19.096C107.952 19.0373 108.062 18.9713 108.165 18.898C108.268 18.8247 108.356 18.7587 108.429 18.7C108.517 18.6413 108.612 18.612 108.715 18.612C108.818 18.612 108.913 18.6707 109.001 18.788C109.089 18.9053 109.133 19.1767 109.133 19.602C109.133 20.4087 108.913 21.0467 108.473 21.516C108.033 21.9853 107.278 22.22 106.207 22.22C105.151 22.22 104.366 21.978 103.853 21.494C103.354 20.9953 103.105 20.24 103.105 19.228C103.105 19.008 103.112 18.7513 103.127 18.458C103.156 18.15 103.193 17.754 103.237 17.27C103.281 16.786 103.332 16.192 103.391 15.488C103.464 14.784 103.538 13.9113 103.611 12.87H102.445C102.328 12.87 102.254 12.848 102.225 12.804C102.21 12.7453 102.203 12.6647 102.203 12.562L102.269 11.44C102.284 11.2493 102.306 11.066 102.335 10.89C102.379 10.6993 102.452 10.5307 102.555 10.384C102.672 10.2373 102.834 10.12 103.039 10.032C103.244 9.944 103.516 9.9 103.853 9.9C103.956 9.636 104.073 9.32067 104.205 8.954C104.337 8.58733 104.469 8.23533 104.601 7.898C104.733 7.546 104.858 7.25267 104.975 7.018C105.107 6.78333 105.224 6.666 105.327 6.666H105.965C106.581 6.666 107.006 6.85667 107.241 7.238C107.476 7.61933 107.593 8.074 107.593 8.602C107.593 8.89533 107.571 9.328 107.527 9.9H109.837C110.072 9.9 110.189 10.0027 110.189 10.208L110.101 11.396C110.072 11.836 109.947 12.1953 109.727 12.474C109.522 12.738 109.089 12.87 108.429 12.87H107.263Z" fill="black"/>
</svg>
