<svg width="92" height="27" viewBox="0 0 92 27" fill="none" xmlns="http://www.w3.org/2000/svg">
<path d="M13.5 2.4375C11.3306 2.4375 9.2099 3.05698 7.40609 4.2176C5.60229 5.37822 4.1964 7.02786 3.3662 8.95791C2.536 10.8879 2.31878 13.0117 2.74202 15.0606C3.16525 17.1096 4.20992 18.9916 5.74393 20.4688C7.27794 21.946 9.23238 22.952 11.3601 23.3595C13.4878 23.7671 15.6933 23.5579 17.6976 22.7585C19.7018 21.959 21.4149 20.6052 22.6202 18.8682C23.8255 17.1312 24.4688 15.0891 24.4688 13C24.4657 10.1996 23.3091 7.51466 21.2527 5.53445C19.1963 3.55424 16.4082 2.44046 13.5 2.4375ZM7.81313 20.0586C8.42351 19.1393 9.26439 18.3828 10.2582 17.8588C11.2521 17.3348 12.3669 17.0601 13.5 17.0601C14.6331 17.0601 15.7479 17.3348 16.7418 17.8588C17.7356 18.3828 18.5765 19.1393 19.1869 20.0586C17.5609 21.2763 15.5598 21.9374 13.5 21.9374C11.4402 21.9374 9.4391 21.2763 7.81313 20.0586ZM10.125 12.1875C10.125 11.5447 10.3229 10.9164 10.6938 10.3819C11.0646 9.84744 11.5917 9.43088 12.2084 9.18489C12.8251 8.93891 13.5037 8.87455 14.1584 8.99995C14.8131 9.12535 15.4145 9.43488 15.8865 9.8894C16.3585 10.3439 16.6799 10.923 16.8102 11.5535C16.9404 12.1839 16.8735 12.8374 16.6181 13.4312C16.3627 14.0251 15.9301 14.5327 15.3751 14.8898C14.82 15.2469 14.1675 15.4375 13.5 15.4375C12.6049 15.4375 11.7465 15.0951 11.1135 14.4856C10.4806 13.8761 10.125 13.0495 10.125 12.1875ZM20.4356 18.9323C19.4946 17.6191 18.1714 16.6033 16.6324 16.0123C17.4591 15.3853 18.0623 14.5259 18.3582 13.5534C18.6541 12.581 18.628 11.5439 18.2834 10.5864C17.9389 9.62894 17.2931 8.79865 16.4358 8.21101C15.5785 7.62338 14.5523 7.3076 13.5 7.3076C12.4477 7.3076 11.4215 7.62338 10.5642 8.21101C9.70694 8.79865 9.06111 9.62894 8.71656 10.5864C8.37201 11.5439 8.34587 12.581 8.64177 13.5534C8.93767 14.5259 9.5409 15.3853 10.3676 16.0123C8.8286 16.6033 7.50541 17.6191 6.56438 18.9323C5.37529 17.6446 4.5981 16.0534 4.32638 14.3503C4.05467 12.6471 4.30001 10.9047 5.03289 9.33268C5.76576 7.7607 6.9549 6.42624 8.45713 5.49C9.95935 4.55375 11.7106 4.05564 13.5 4.05564C15.2894 4.05564 17.0407 4.55375 18.5429 5.49C20.0451 6.42624 21.2343 7.7607 21.9671 9.33268C22.7 10.9047 22.9453 12.6471 22.6736 14.3503C22.4019 16.0534 21.6247 17.6446 20.4356 18.9323Z" fill="black"/>
<path d="M38.41 22C37.5887 22 37.002 21.8387 36.65 21.516C36.298 21.1933 36.122 20.7313 36.122 20.13C36.122 19.8367 36.144 19.338 36.188 18.634C36.232 17.9153 36.2907 17.1013 36.364 16.192C36.4373 15.2827 36.5107 14.322 36.584 13.31C36.6573 12.298 36.7307 11.3447 36.804 10.45C36.8773 9.55533 36.936 8.77067 36.98 8.096C37.024 7.42133 37.046 6.95933 37.046 6.71C37.046 6.49 37.1633 6.38 37.398 6.38H38.608C39.4293 6.38 39.994 6.54133 40.302 6.864C40.6247 7.172 40.786 7.634 40.786 8.25C40.786 8.32333 40.7787 8.38933 40.764 8.448C40.764 8.50667 40.764 8.57267 40.764 8.646L40.038 18.92H43.998C44.086 18.92 44.1667 18.9493 44.24 19.008C44.3133 19.052 44.35 19.1253 44.35 19.228L44.262 20.526C44.2327 20.966 44.108 21.3253 43.888 21.604C43.6827 21.868 43.25 22 42.59 22H38.41ZM50.5839 22.22C49.5719 22.22 48.7286 22.0807 48.0539 21.802C47.3939 21.5087 46.8659 21.1127 46.4699 20.614C46.0739 20.1153 45.7952 19.536 45.6339 18.876C45.4726 18.2013 45.3919 17.4827 45.3919 16.72C45.3919 15.84 45.4946 14.982 45.6999 14.146C45.9199 13.2953 46.2866 12.54 46.7999 11.88C47.3132 11.22 47.9879 10.692 48.8239 10.296C49.6746 9.88533 50.7306 9.68 51.9919 9.68C53.8399 9.68 55.1599 10.1347 55.9519 11.044C56.7586 11.9387 57.1619 13.2 57.1619 14.828C57.1619 15.2827 57.1252 15.7887 57.0519 16.346C56.9932 16.8887 56.8686 17.4313 56.6779 17.974C56.5019 18.5167 56.2526 19.0447 55.9299 19.558C55.6219 20.0713 55.2259 20.526 54.7419 20.922C54.2579 21.318 53.6712 21.6333 52.9819 21.868C52.3072 22.1027 51.5079 22.22 50.5839 22.22ZM51.6179 12.606C51.0606 12.606 50.6132 12.7527 50.2759 13.046C49.9532 13.3247 49.7039 13.6693 49.5279 14.08C49.3666 14.476 49.2566 14.9013 49.1979 15.356C49.1539 15.796 49.1319 16.17 49.1319 16.478C49.1319 17.446 49.2859 18.1573 49.5939 18.612C49.9019 19.0667 50.3419 19.294 50.9139 19.294C51.4272 19.294 51.8452 19.1327 52.1679 18.81C52.5052 18.4873 52.7619 18.0987 52.9379 17.644C53.1286 17.1893 53.2532 16.7127 53.3119 16.214C53.3852 15.7153 53.4219 15.2973 53.4219 14.96C53.4219 14.2267 53.2826 13.6547 53.0039 13.244C52.7399 12.8187 52.2779 12.606 51.6179 12.606ZM65.9983 19.404C65.6317 20.064 65.1843 20.5553 64.6563 20.878C64.1283 21.186 63.4683 21.34 62.6763 21.34C62.075 21.34 61.525 21.2447 61.0263 21.054C60.5277 20.8633 60.1023 20.5627 59.7503 20.152C59.3983 19.7413 59.1197 19.228 58.9143 18.612C58.7237 17.9813 58.6283 17.2333 58.6283 16.368C58.6283 15.664 58.7017 14.9233 58.8483 14.146C58.995 13.354 59.259 12.628 59.6403 11.968C60.0363 11.308 60.5717 10.7653 61.2463 10.34C61.921 9.9 62.7863 9.68 63.8423 9.68C64.2823 9.68 64.6563 9.73133 64.9643 9.834C65.287 9.922 65.5583 10.0467 65.7783 10.208C66.013 10.3693 66.1963 10.56 66.3283 10.78C66.475 11 66.585 11.2347 66.6583 11.484C66.6583 11.4987 66.6583 11.4473 66.6583 11.33C66.673 11.198 66.6877 11.0513 66.7023 10.89C66.717 10.7287 66.7243 10.5747 66.7243 10.428C66.739 10.2667 66.7463 10.164 66.7463 10.12C66.761 9.97333 66.8563 9.9 67.0323 9.9H68.0443C68.807 9.9 69.357 10.0613 69.6943 10.384C70.0463 10.692 70.2223 11.286 70.2223 12.166C70.2223 12.2833 70.215 12.5547 70.2003 12.98C70.1857 13.3907 70.1563 13.8893 70.1123 14.476C70.083 15.0627 70.039 15.7153 69.9803 16.434C69.9217 17.138 69.8557 17.8493 69.7823 18.568C69.709 19.2867 69.6283 19.976 69.5403 20.636C69.4523 21.296 69.357 21.8753 69.2543 22.374C69.1517 22.8727 68.9757 23.3567 68.7263 23.826C68.477 24.2953 68.125 24.7133 67.6703 25.08C67.2157 25.4467 66.629 25.74 65.9103 25.96C65.2063 26.18 64.341 26.29 63.3143 26.29C62.537 26.29 61.855 26.2167 61.2683 26.07C60.6963 25.9233 60.2197 25.7253 59.8383 25.476C59.457 25.2413 59.1637 24.97 58.9583 24.662C58.7677 24.354 58.6723 24.046 58.6723 23.738C58.6723 23.4593 58.731 23.2173 58.8483 23.012C58.9657 22.8067 59.1197 22.638 59.3103 22.506C59.501 22.374 59.7063 22.2713 59.9263 22.198C60.161 22.1393 60.381 22.11 60.5863 22.11C60.8357 22.11 61.019 22.1833 61.1363 22.33C61.2537 22.4767 61.3857 22.638 61.5323 22.814C61.679 23.0047 61.8843 23.1733 62.1483 23.32C62.4123 23.4667 62.823 23.54 63.3803 23.54C64.3483 23.54 65.023 23.1807 65.4043 22.462C65.8003 21.758 65.9983 20.7387 65.9983 19.404ZM64.1503 18.414C64.6783 18.414 65.089 18.2893 65.3823 18.04C65.6903 17.7907 65.925 17.49 66.0863 17.138C66.2477 16.786 66.3503 16.4193 66.3943 16.038C66.4383 15.6567 66.4603 15.3267 66.4603 15.048C66.4603 14.168 66.321 13.5447 66.0423 13.178C65.7783 12.7967 65.375 12.606 64.8323 12.606C64.2897 12.606 63.8643 12.7527 63.5563 13.046C63.2483 13.3393 63.0137 13.6913 62.8523 14.102C62.7057 14.498 62.6103 14.9013 62.5663 15.312C62.5223 15.708 62.5003 16.016 62.5003 16.236C62.5003 16.9693 62.625 17.5193 62.8743 17.886C63.1237 18.238 63.549 18.414 64.1503 18.414ZM74.4336 22C73.979 22 73.605 21.956 73.3116 21.868C73.033 21.7653 72.8056 21.626 72.6296 21.45C72.4683 21.274 72.351 21.0613 72.2776 20.812C72.219 20.548 72.1896 20.2473 72.1896 19.91C72.1896 19.69 72.197 19.382 72.2116 18.986C72.241 18.5753 72.285 18.018 72.3436 17.314C72.4023 16.5953 72.4683 15.6933 72.5416 14.608C72.6296 13.508 72.7323 12.1513 72.8496 10.538C72.8643 10.2153 72.901 10.0247 72.9596 9.966C73.0036 9.922 73.121 9.9 73.3116 9.9H74.1696C74.6243 9.9 74.991 9.944 75.2696 10.032C75.563 10.12 75.7903 10.252 75.9516 10.428C76.1276 10.604 76.245 10.8167 76.3036 11.066C76.377 11.3153 76.4136 11.594 76.4136 11.902C76.4136 12.122 76.399 12.452 76.3696 12.892C76.3403 13.332 76.2963 13.9333 76.2376 14.696C76.1936 15.444 76.1276 16.3827 76.0396 17.512C75.9516 18.6267 75.8416 19.976 75.7096 21.56C75.695 21.736 75.6583 21.8533 75.5996 21.912C75.541 21.9707 75.4163 22 75.2256 22H74.4336ZM72.8716 7.304C72.8716 6.71733 73.0843 6.25533 73.5096 5.918C73.935 5.58067 74.507 5.412 75.2256 5.412C75.8563 5.412 76.311 5.544 76.5896 5.808C76.883 6.05733 77.0296 6.39467 77.0296 6.82C77.0296 7.36267 76.8243 7.81733 76.4136 8.184C76.0176 8.536 75.431 8.712 74.6536 8.712C73.4656 8.712 72.8716 8.24267 72.8716 7.304ZM85.8571 20.064C85.8571 19.7413 85.8791 19.3233 85.9231 18.81C85.9818 18.282 86.0331 17.732 86.0771 17.16C86.1358 16.5733 86.1871 16.0087 86.2311 15.466C86.2898 14.9233 86.3191 14.4687 86.3191 14.102C86.3191 13.7207 86.2238 13.3833 86.0331 13.09C85.8571 12.782 85.5051 12.628 84.9771 12.628C84.4638 12.628 84.0385 12.7527 83.7011 13.002C83.3638 13.2513 83.0778 13.706 82.8431 14.366C82.6231 15.026 82.4398 15.9353 82.2931 17.094C82.1465 18.2527 82.0071 19.7413 81.8751 21.56C81.8605 21.736 81.8238 21.8533 81.7651 21.912C81.7065 21.9707 81.5818 22 81.3911 22H80.5991C80.1445 22 79.7705 21.956 79.4771 21.868C79.1985 21.7653 78.9711 21.626 78.7951 21.45C78.6338 21.274 78.5165 21.0613 78.4431 20.812C78.3845 20.548 78.3551 20.2473 78.3551 19.91C78.3551 19.69 78.3625 19.382 78.3771 18.986C78.4065 18.5753 78.4505 18.018 78.5091 17.314C78.5678 16.5953 78.6338 15.6933 78.7071 14.608C78.7951 13.508 78.8978 12.1513 79.0151 10.538C79.0298 10.2153 79.0665 10.0247 79.1251 9.966C79.1691 9.922 79.2865 9.9 79.4771 9.9H80.3351C80.7751 9.9 81.1345 9.95133 81.4131 10.054C81.7065 10.1567 81.9411 10.296 82.1171 10.472C82.2931 10.6333 82.4178 10.8313 82.4911 11.066C82.5645 11.286 82.6085 11.5133 82.6231 11.748C83.0778 10.9707 83.5985 10.4353 84.1851 10.142C84.7718 9.834 85.5051 9.68 86.3851 9.68C87.0011 9.68 87.5365 9.746 87.9911 9.878C88.4458 10.01 88.8198 10.2373 89.1131 10.56C89.4211 10.868 89.6485 11.2787 89.7951 11.792C89.9418 12.2907 90.0151 12.914 90.0151 13.662C90.0151 13.8967 90.0005 14.234 89.9711 14.674C89.9418 15.114 89.9051 15.598 89.8611 16.126C89.8171 16.6393 89.7658 17.182 89.7071 17.754C89.6631 18.3113 89.6191 18.832 89.5751 19.316C89.5311 19.8 89.4945 20.2253 89.4651 20.592C89.4358 20.9587 89.4211 21.2007 89.4211 21.318C89.4211 21.6407 89.3845 21.8387 89.3111 21.912C89.2378 21.9707 89.0765 22 88.8271 22H88.1231C87.6538 22 87.2725 21.956 86.9791 21.868C86.6858 21.78 86.4585 21.6553 86.2971 21.494C86.1358 21.3327 86.0185 21.1347 85.9451 20.9C85.8865 20.6507 85.8571 20.372 85.8571 20.064Z" fill="black"/>
</svg>
